<svg xmlns="http://www.w3.org/2000/svg" width="805" height="600"><rect width="805" height="600" x="0" y="0" fill="#FFFFFF" id="background"/><g id="viz"><g transform="translate(0,0)"><g transform="translate(10,20)"><g><path fill="rgb(224, 236, 248)" d="M0,226.5C13.083333333333334,226.5,13.083333333333334,318.5,26.166666666666668,318.5C39.25,318.5,39.25,378,52.333333333333336,378C65.41666666666667,378,65.41666666666667,343,78.5,343C91.58333333333334,343,91.58333333333334,353.5,104.66666666666667,353.5C117.75,353.5,117.75,378,130.83333333333331,378C143.91666666666666,378,143.91666666666666,343,157,343C170.08333333333331,343,170.08333333333331,311.5,183.16666666666666,311.5C196.25,311.5,196.25,304.5,209.33333333333334,304.5C222.41666666666669,304.5,222.41666666666669,353.5,235.5,353.5C248.58333333333331,353.5,248.58333333333331,311.5,261.66666666666663,311.5C274.75,311.5,274.75,318.5,287.8333333333333,318.5C300.91666666666663,318.5,300.91666666666663,304.5,314,304.5C327.08333333333337,304.5,327.08333333333337,315,340.1666666666667,315C353.25,315,353.25,444.5,366.3333333333333,444.5C379.41666666666663,444.5,379.41666666666663,329,392.5,329C405.58333333333337,329,405.58333333333337,308,418.6666666666667,308C431.75,308,431.75,304.5,444.8333333333333,304.5C457.91666666666663,304.5,457.91666666666663,336,471,336C484.0833333333333,336,484.0833333333333,318.5,497.16666666666663,318.5C510.24999999999994,318.5,510.24999999999994,402.5,523.3333333333333,402.5C536.4166666666666,402.5,536.4166666666666,357,549.5,357C562.5833333333333,357,562.5833333333333,367.5,575.6666666666666,367.5C588.75,367.5,588.75,311.5,601.8333333333334,311.5C614.9166666666667,311.5,614.9166666666667,311.5,628,311.5C641.0833333333334,311.5,641.0833333333334,374.5,654.1666666666667,374.5C667.25,374.5,667.25,360.5,680.3333333333334,360.5C693.4166666666667,360.5,693.4166666666667,346.5,706.5,346.5C719.5833333333333,346.5,719.5833333333333,546,732.6666666666666,546C745.75,546,745.75,360.5,758.8333333333334,360.5C771.9166666666667,360.5,771.9166666666667,304.5,785,304.5L785,304.5C771.9166666666667,304.5,771.9166666666667,360.5,758.8333333333334,360.5C745.75,360.5,745.75,546,732.6666666666666,546C719.5833333333333,546,719.5833333333333,346.5,706.5,346.5C693.4166666666667,346.5,693.4166666666667,360.5,680.3333333333334,360.5C667.25,360.5,667.25,374.5,654.1666666666667,374.5C641.0833333333334,374.5,641.0833333333334,311.5,628,311.5C614.9166666666667,311.5,614.9166666666667,311.5,601.8333333333334,311.5C588.75,311.5,588.75,367.5,575.6666666666666,367.5C562.5833333333333,367.5,562.5833333333333,357,549.5,357C536.4166666666666,357,536.4166666666666,402.5,523.3333333333333,402.5C510.24999999999994,402.5,510.24999999999994,318.5,497.16666666666663,318.5C484.0833333333333,318.5,484.0833333333333,336,471,336C457.91666666666663,336,457.91666666666663,304.5,444.8333333333333,304.5C431.75,304.5,431.75,308,418.6666666666667,308C405.58333333333337,308,405.58333333333337,329,392.5,329C379.41666666666663,329,379.41666666666663,444.5,366.3333333333333,444.5C353.25,444.5,353.25,315,340.1666666666667,315C327.08333333333337,315,327.08333333333337,304.5,314,304.5C300.91666666666663,304.5,300.91666666666663,318.5,287.8333333333333,318.5C274.75,318.5,274.75,311.5,261.66666666666663,311.5C248.58333333333331,311.5,248.58333333333331,353.5,235.5,353.5C222.41666666666669,353.5,222.41666666666669,304.5,209.33333333333334,304.5C196.25,304.5,196.25,311.5,183.16666666666666,311.5C170.08333333333331,311.5,170.08333333333331,343,157,343C143.91666666666666,343,143.91666666666666,378,130.83333333333331,378C117.75,378,117.75,353.5,104.66666666666667,353.5C91.58333333333334,353.5,91.58333333333334,343,78.5,343C65.41666666666667,343,65.41666666666667,378,52.333333333333336,378C39.25,378,39.25,318.5,26.166666666666668,318.5C13.083333333333334,318.5,13.083333333333334,331.5,0,331.5Z"><title>15</title></path><path fill="rgb(235, 244, 251)" d="M0,332.5C13.083333333333334,332.5,13.083333333333334,240.5,26.166666666666668,240.5C39.25,240.5,39.25,378,52.333333333333336,378C65.41666666666667,378,65.41666666666667,343,78.5,343C91.58333333333334,343,91.58333333333334,353.5,104.66666666666667,353.5C117.75,353.5,117.75,378,130.83333333333331,378C143.91666666666666,378,143.91666666666666,343,157,343C170.08333333333331,343,170.08333333333331,311.5,183.16666666666666,311.5C196.25,311.5,196.25,304.5,209.33333333333334,304.5C222.41666666666669,304.5,222.41666666666669,353.5,235.5,353.5C248.58333333333331,353.5,248.58333333333331,311.5,261.66666666666663,311.5C274.75,311.5,274.75,240.5,287.8333333333333,240.5C300.91666666666663,240.5,300.91666666666663,304.5,314,304.5C327.08333333333337,304.5,327.08333333333337,315,340.1666666666667,315C353.25,315,353.25,444.5,366.3333333333333,444.5C379.41666666666663,444.5,379.41666666666663,329,392.5,329C405.58333333333337,329,405.58333333333337,308,418.6666666666667,308C431.75,308,431.75,304.5,444.8333333333333,304.5C457.91666666666663,304.5,457.91666666666663,336,471,336C484.0833333333333,336,484.0833333333333,240.5,497.16666666666663,240.5C510.24999999999994,240.5,510.24999999999994,402.5,523.3333333333333,402.5C536.4166666666666,402.5,536.4166666666666,357,549.5,357C562.5833333333333,357,562.5833333333333,367.5,575.6666666666666,367.5C588.75,367.5,588.75,311.5,601.8333333333334,311.5C614.9166666666667,311.5,614.9166666666667,311.5,628,311.5C641.0833333333334,311.5,641.0833333333334,374.5,654.1666666666667,374.5C667.25,374.5,667.25,360.5,680.3333333333334,360.5C693.4166666666667,360.5,693.4166666666667,346.5,706.5,346.5C719.5833333333333,346.5,719.5833333333333,546,732.6666666666666,546C745.75,546,745.75,360.5,758.8333333333334,360.5C771.9166666666667,360.5,771.9166666666667,304.5,785,304.5L785,304.5C771.9166666666667,304.5,771.9166666666667,360.5,758.8333333333334,360.5C745.75,360.5,745.75,546,732.6666666666666,546C719.5833333333333,546,719.5833333333333,346.5,706.5,346.5C693.4166666666667,346.5,693.4166666666667,360.5,680.3333333333334,360.5C667.25,360.5,667.25,374.5,654.1666666666667,374.5C641.0833333333334,374.5,641.0833333333334,311.5,628,311.5C614.9166666666667,311.5,614.9166666666667,311.5,601.8333333333334,311.5C588.75,311.5,588.75,367.5,575.6666666666666,367.5C562.5833333333333,367.5,562.5833333333333,357,549.5,357C536.4166666666666,357,536.4166666666666,402.5,523.3333333333333,402.5C510.24999999999994,402.5,510.24999999999994,317.5,497.16666666666663,317.5C484.0833333333333,317.5,484.0833333333333,336,471,336C457.91666666666663,336,457.91666666666663,304.5,444.8333333333333,304.5C431.75,304.5,431.75,308,418.6666666666667,308C405.58333333333337,308,405.58333333333337,329,392.5,329C379.41666666666663,329,379.41666666666663,444.5,366.3333333333333,444.5C353.25,444.5,353.25,315,340.1666666666667,315C327.08333333333337,315,327.08333333333337,304.5,314,304.5C300.91666666666663,304.5,300.91666666666663,317.5,287.8333333333333,317.5C274.75,317.5,274.75,311.5,261.66666666666663,311.5C248.58333333333331,311.5,248.58333333333331,353.5,235.5,353.5C222.41666666666669,353.5,222.41666666666669,304.5,209.33333333333334,304.5C196.25,304.5,196.25,311.5,183.16666666666666,311.5C170.08333333333331,311.5,170.08333333333331,343,157,343C143.91666666666666,343,143.91666666666666,378,130.83333333333331,378C117.75,378,117.75,353.5,104.66666666666667,353.5C91.58333333333334,353.5,91.58333333333334,343,78.5,343C65.41666666666667,343,65.41666666666667,378,52.333333333333336,378C39.25,378,39.25,317.5,26.166666666666668,317.5C13.083333333333334,317.5,13.083333333333334,332.5,0,332.5Z"><title>11</title></path><path fill="rgb(180, 211, 233)" d="M0,331.5C13.083333333333334,331.5,13.083333333333334,318.5,26.166666666666668,318.5C39.25,318.5,39.25,180.99999999999997,52.333333333333336,180.99999999999997C65.41666666666667,180.99999999999997,65.41666666666667,343,78.5,343C91.58333333333334,343,91.58333333333334,353.5,104.66666666666667,353.5C117.75,353.5,117.75,180.99999999999997,130.83333333333331,180.99999999999997C143.91666666666666,180.99999999999997,143.91666666666666,343,157,343C170.08333333333331,343,170.08333333333331,311.5,183.16666666666666,311.5C196.25,311.5,196.25,304.5,209.33333333333334,304.5C222.41666666666669,304.5,222.41666666666669,353.5,235.5,353.5C248.58333333333331,353.5,248.58333333333331,310.5,261.66666666666663,310.5C274.75,310.5,274.75,318.5,287.8333333333333,318.5C300.91666666666663,318.5,300.91666666666663,304.5,314,304.5C327.08333333333337,304.5,327.08333333333337,315,340.1666666666667,315C353.25,315,353.25,444.5,366.3333333333333,444.5C379.41666666666663,444.5,379.41666666666663,329,392.5,329C405.58333333333337,329,405.58333333333337,308,418.6666666666667,308C431.75,308,431.75,304.5,444.8333333333333,304.5C457.91666666666663,304.5,457.91666666666663,335,471,335C484.0833333333333,335,484.0833333333333,318.5,497.16666666666663,318.5C510.24999999999994,318.5,510.24999999999994,402.5,523.3333333333333,402.5C536.4166666666666,402.5,536.4166666666666,357,549.5,357C562.5833333333333,357,562.5833333333333,367.5,575.6666666666666,367.5C588.75,367.5,588.75,311.5,601.8333333333334,311.5C614.9166666666667,311.5,614.9166666666667,311.5,628,311.5C641.0833333333334,311.5,641.0833333333334,374.5,654.1666666666667,374.5C667.25,374.5,667.25,360.5,680.3333333333334,360.5C693.4166666666667,360.5,693.4166666666667,346.5,706.5,346.5C719.5833333333333,346.5,719.5833333333333,546,732.6666666666666,546C745.75,546,745.75,360.5,758.8333333333334,360.5C771.9166666666667,360.5,771.9166666666667,304.5,785,304.5L785,304.5C771.9166666666667,304.5,771.9166666666667,360.5,758.8333333333334,360.5C745.75,360.5,745.75,546,732.6666666666666,546C719.5833333333333,546,719.5833333333333,346.5,706.5,346.5C693.4166666666667,346.5,693.4166666666667,360.5,680.3333333333334,360.5C667.25,360.5,667.25,374.5,654.1666666666667,374.5C641.0833333333334,374.5,641.0833333333334,311.5,628,311.5C614.9166666666667,311.5,614.9166666666667,311.5,601.8333333333334,311.5C588.75,311.5,588.75,367.5,575.6666666666666,367.5C562.5833333333333,367.5,562.5833333333333,357,549.5,357C536.4166666666666,357,536.4166666666666,402.5,523.3333333333333,402.5C510.24999999999994,402.5,510.24999999999994,318.5,497.16666666666663,318.5C484.0833333333333,318.5,484.0833333333333,335,471,335C457.91666666666663,335,457.91666666666663,304.5,444.8333333333333,304.5C431.75,304.5,431.75,308,418.6666666666667,308C405.58333333333337,308,405.58333333333337,329,392.5,329C379.41666666666663,329,379.41666666666663,444.5,366.3333333333333,444.5C353.25,444.5,353.25,315,340.1666666666667,315C327.08333333333337,315,327.08333333333337,304.5,314,304.5C300.91666666666663,304.5,300.91666666666663,318.5,287.8333333333333,318.5C274.75,318.5,274.75,310.5,261.66666666666663,310.5C248.58333333333331,310.5,248.58333333333331,353.5,235.5,353.5C222.41666666666669,353.5,222.41666666666669,304.5,209.33333333333334,304.5C196.25,304.5,196.25,311.5,183.16666666666666,311.5C170.08333333333331,311.5,170.08333333333331,343,157,343C143.91666666666666,343,143.91666666666666,377,130.83333333333331,377C117.75,377,117.75,353.5,104.66666666666667,353.5C91.58333333333334,353.5,91.58333333333334,343,78.5,343C65.41666666666667,343,65.41666666666667,377,52.333333333333336,377C39.25,377,39.25,318.5,26.166666666666668,318.5C13.083333333333334,318.5,13.083333333333334,331.5,0,331.5Z"><title>28</title></path><path fill="rgb(215, 231, 245)" d="M0,331.5C13.083333333333334,331.5,13.083333333333334,317.5,26.166666666666668,317.5C39.25,317.5,39.25,378,52.333333333333336,378C65.41666666666667,378,65.41666666666667,215.99999999999997,78.5,215.99999999999997C91.58333333333334,215.99999999999997,91.58333333333334,352.5,104.66666666666667,352.5C117.75,352.5,117.75,378,130.83333333333331,378C143.91666666666666,378,143.91666666666666,215.99999999999997,157,215.99999999999997C170.08333333333331,215.99999999999997,170.08333333333331,311.5,183.16666666666666,311.5C196.25,311.5,196.25,304.5,209.33333333333334,304.5C222.41666666666669,304.5,222.41666666666669,353.5,235.5,353.5C248.58333333333331,353.5,248.58333333333331,310.5,261.66666666666663,310.5C274.75,310.5,274.75,318.5,287.8333333333333,318.5C300.91666666666663,318.5,300.91666666666663,304.5,314,304.5C327.08333333333337,304.5,327.08333333333337,315,340.1666666666667,315C353.25,315,353.25,444.5,366.3333333333333,444.5C379.41666666666663,444.5,379.41666666666663,329,392.5,329C405.58333333333337,329,405.58333333333337,308,418.6666666666667,308C431.75,308,431.75,304.5,444.8333333333333,304.5C457.91666666666663,304.5,457.91666666666663,335,471,335C484.0833333333333,335,484.0833333333333,318.5,497.16666666666663,318.5C510.24999999999994,318.5,510.24999999999994,402.5,523.3333333333333,402.5C536.4166666666666,402.5,536.4166666666666,357,549.5,357C562.5833333333333,357,562.5833333333333,367.5,575.6666666666666,367.5C588.75,367.5,588.75,311.5,601.8333333333334,311.5C614.9166666666667,311.5,614.9166666666667,311.5,628,311.5C641.0833333333334,311.5,641.0833333333334,374.5,654.1666666666667,374.5C667.25,374.5,667.25,360.5,680.3333333333334,360.5C693.4166666666667,360.5,693.4166666666667,346.5,706.5,346.5C719.5833333333333,346.5,719.5833333333333,546,732.6666666666666,546C745.75,546,745.75,360.5,758.8333333333334,360.5C771.9166666666667,360.5,771.9166666666667,304.5,785,304.5L785,304.5C771.9166666666667,304.5,771.9166666666667,360.5,758.8333333333334,360.5C745.75,360.5,745.75,546,732.6666666666666,546C719.5833333333333,546,719.5833333333333,346.5,706.5,346.5C693.4166666666667,346.5,693.4166666666667,360.5,680.3333333333334,360.5C667.25,360.5,667.25,374.5,654.1666666666667,374.5C641.0833333333334,374.5,641.0833333333334,311.5,628,311.5C614.9166666666667,311.5,614.9166666666667,311.5,601.8333333333334,311.5C588.75,311.5,588.75,367.5,575.6666666666666,367.5C562.5833333333333,367.5,562.5833333333333,357,549.5,357C536.4166666666666,357,536.4166666666666,402.5,523.3333333333333,402.5C510.24999999999994,402.5,510.24999999999994,318.5,497.16666666666663,318.5C484.0833333333333,318.5,484.0833333333333,335,471,335C457.91666666666663,335,457.91666666666663,304.5,444.8333333333333,304.5C431.75,304.5,431.75,308,418.6666666666667,308C405.58333333333337,308,405.58333333333337,329,392.5,329C379.41666666666663,329,379.41666666666663,444.5,366.3333333333333,444.5C353.25,444.5,353.25,315,340.1666666666667,315C327.08333333333337,315,327.08333333333337,304.5,314,304.5C300.91666666666663,304.5,300.91666666666663,318.5,287.8333333333333,318.5C274.75,318.5,274.75,310.5,261.66666666666663,310.5C248.58333333333331,310.5,248.58333333333331,353.5,235.5,353.5C222.41666666666669,353.5,222.41666666666669,304.5,209.33333333333334,304.5C196.25,304.5,196.25,311.5,183.16666666666666,311.5C170.08333333333331,311.5,170.08333333333331,342,157,342C143.91666666666666,342,143.91666666666666,378,130.83333333333331,378C117.75,378,117.75,352.5,104.66666666666667,352.5C91.58333333333334,352.5,91.58333333333334,342,78.5,342C65.41666666666667,342,65.41666666666667,378,52.333333333333336,378C39.25,378,39.25,317.5,26.166666666666668,317.5C13.083333333333334,317.5,13.083333333333334,331.5,0,331.5Z"><title>18</title></path><path fill="rgb(206, 225, 242)" d="M0,331.5C13.083333333333334,331.5,13.083333333333334,317.5,26.166666666666668,317.5C39.25,317.5,39.25,377,52.333333333333336,377C65.41666666666667,377,65.41666666666667,343,78.5,343C91.58333333333334,343,91.58333333333334,205.5,104.66666666666667,205.5C117.75,205.5,117.75,377,130.83333333333331,377C143.91666666666666,377,143.91666666666666,343,157,343C170.08333333333331,343,170.08333333333331,311.5,183.16666666666666,311.5C196.25,311.5,196.25,304.5,209.33333333333334,304.5C222.41666666666669,304.5,222.41666666666669,205.5,235.5,205.5C248.58333333333331,205.5,248.58333333333331,310.5,261.66666666666663,310.5C274.75,310.5,274.75,318.5,287.8333333333333,318.5C300.91666666666663,318.5,300.91666666666663,304.5,314,304.5C327.08333333333337,304.5,327.08333333333337,315,340.1666666666667,315C353.25,315,353.25,444.5,366.3333333333333,444.5C379.41666666666663,444.5,379.41666666666663,329,392.5,329C405.58333333333337,329,405.58333333333337,308,418.6666666666667,308C431.75,308,431.75,304.5,444.8333333333333,304.5C457.91666666666663,304.5,457.91666666666663,335,471,335C484.0833333333333,335,484.0833333333333,318.5,497.16666666666663,318.5C510.24999999999994,318.5,510.24999999999994,402.5,523.3333333333333,402.5C536.4166666666666,402.5,536.4166666666666,357,549.5,357C562.5833333333333,357,562.5833333333333,367.5,575.6666666666666,367.5C588.75,367.5,588.75,311.5,601.8333333333334,311.5C614.9166666666667,311.5,614.9166666666667,311.5,628,311.5C641.0833333333334,311.5,641.0833333333334,374.5,654.1666666666667,374.5C667.25,374.5,667.25,360.5,680.3333333333334,360.5C693.4166666666667,360.5,693.4166666666667,346.5,706.5,346.5C719.5833333333333,346.5,719.5833333333333,546,732.6666666666666,546C745.75,546,745.75,360.5,758.8333333333334,360.5C771.9166666666667,360.5,771.9166666666667,304.5,785,304.5L785,304.5C771.9166666666667,304.5,771.9166666666667,360.5,758.8333333333334,360.5C745.75,360.5,745.75,546,732.6666666666666,546C719.5833333333333,546,719.5833333333333,346.5,706.5,346.5C693.4166666666667,346.5,693.4166666666667,360.5,680.3333333333334,360.5C667.25,360.5,667.25,374.5,654.1666666666667,374.5C641.0833333333334,374.5,641.0833333333334,311.5,628,311.5C614.9166666666667,311.5,614.9166666666667,311.5,601.8333333333334,311.5C588.75,311.5,588.75,367.5,575.6666666666666,367.5C562.5833333333333,367.5,562.5833333333333,357,549.5,357C536.4166666666666,357,536.4166666666666,402.5,523.3333333333333,402.5C510.24999999999994,402.5,510.24999999999994,318.5,497.16666666666663,318.5C484.0833333333333,318.5,484.0833333333333,335,471,335C457.91666666666663,335,457.91666666666663,304.5,444.8333333333333,304.5C431.75,304.5,431.75,308,418.6666666666667,308C405.58333333333337,308,405.58333333333337,329,392.5,329C379.41666666666663,329,379.41666666666663,444.5,366.3333333333333,444.5C353.25,444.5,353.25,315,340.1666666666667,315C327.08333333333337,315,327.08333333333337,304.5,314,304.5C300.91666666666663,304.5,300.91666666666663,318.5,287.8333333333333,318.5C274.75,318.5,274.75,310.5,261.66666666666663,310.5C248.58333333333331,310.5,248.58333333333331,352.5,235.5,352.5C222.41666666666669,352.5,222.41666666666669,304.5,209.33333333333334,304.5C196.25,304.5,196.25,311.5,183.16666666666666,311.5C170.08333333333331,311.5,170.08333333333331,343,157,343C143.91666666666666,343,143.91666666666666,377,130.83333333333331,377C117.75,377,117.75,352.5,104.66666666666667,352.5C91.58333333333334,352.5,91.58333333333334,343,78.5,343C65.41666666666667,343,65.41666666666667,377,52.333333333333336,377C39.25,377,39.25,317.5,26.166666666666668,317.5C13.083333333333334,317.5,13.083333333333334,331.5,0,331.5Z"><title>21</title></path><path fill="rgb(241, 247, 253)" d="M0,331.5C13.083333333333334,331.5,13.083333333333334,317.5,26.166666666666668,317.5C39.25,317.5,39.25,377,52.333333333333336,377C65.41666666666667,377,65.41666666666667,342,78.5,342C91.58333333333334,342,91.58333333333334,352.5,104.66666666666667,352.5C117.75,352.5,117.75,377,130.83333333333331,377C143.91666666666666,377,143.91666666666666,343,157,343C170.08333333333331,343,170.08333333333331,247.5,183.16666666666666,247.5C196.25,247.5,196.25,303.5,209.33333333333334,303.5C222.41666666666669,303.5,222.41666666666669,353.5,235.5,353.5C248.58333333333331,353.5,248.58333333333331,247.5,261.66666666666663,247.5C274.75,247.5,274.75,318.5,287.8333333333333,318.5C300.91666666666663,318.5,300.91666666666663,304.5,314,304.5C327.08333333333337,304.5,327.08333333333337,315,340.1666666666667,315C353.25,315,353.25,444.5,366.3333333333333,444.5C379.41666666666663,444.5,379.41666666666663,329,392.5,329C405.58333333333337,329,405.58333333333337,308,418.6666666666667,308C431.75,308,431.75,304.5,444.8333333333333,304.5C457.91666666666663,304.5,457.91666666666663,335,471,335C484.0833333333333,335,484.0833333333333,318.5,497.16666666666663,318.5C510.24999999999994,318.5,510.24999999999994,402.5,523.3333333333333,402.5C536.4166666666666,402.5,536.4166666666666,357,549.5,357C562.5833333333333,357,562.5833333333333,367.5,575.6666666666666,367.5C588.75,367.5,588.75,248.5,601.8333333333334,248.5C614.9166666666667,248.5,614.9166666666667,247.5,628,247.5C641.0833333333334,247.5,641.0833333333334,374.5,654.1666666666667,374.5C667.25,374.5,667.25,360.5,680.3333333333334,360.5C693.4166666666667,360.5,693.4166666666667,346.5,706.5,346.5C719.5833333333333,346.5,719.5833333333333,546,732.6666666666666,546C745.75,546,745.75,360.5,758.8333333333334,360.5C771.9166666666667,360.5,771.9166666666667,304.5,785,304.5L785,304.5C771.9166666666667,304.5,771.9166666666667,360.5,758.8333333333334,360.5C745.75,360.5,745.75,546,732.6666666666666,546C719.5833333333333,546,719.5833333333333,346.5,706.5,346.5C693.4166666666667,346.5,693.4166666666667,360.5,680.3333333333334,360.5C667.25,360.5,667.25,374.5,654.1666666666667,374.5C641.0833333333334,374.5,641.0833333333334,310.5,628,310.5C614.9166666666667,310.5,614.9166666666667,311.5,601.8333333333334,311.5C588.75,311.5,588.75,367.5,575.6666666666666,367.5C562.5833333333333,367.5,562.5833333333333,357,549.5,357C536.4166666666666,357,536.4166666666666,402.5,523.3333333333333,402.5C510.24999999999994,402.5,510.24999999999994,318.5,497.16666666666663,318.5C484.0833333333333,318.5,484.0833333333333,335,471,335C457.91666666666663,335,457.91666666666663,304.5,444.8333333333333,304.5C431.75,304.5,431.75,308,418.6666666666667,308C405.58333333333337,308,405.58333333333337,329,392.5,329C379.41666666666663,329,379.41666666666663,444.5,366.3333333333333,444.5C353.25,444.5,353.25,315,340.1666666666667,315C327.08333333333337,315,327.08333333333337,304.5,314,304.5C300.91666666666663,304.5,300.91666666666663,318.5,287.8333333333333,318.5C274.75,318.5,274.75,310.5,261.66666666666663,310.5C248.58333333333331,310.5,248.58333333333331,353.5,235.5,353.5C222.41666666666669,353.5,222.41666666666669,303.5,209.33333333333334,303.5C196.25,303.5,196.25,310.5,183.16666666666666,310.5C170.08333333333331,310.5,170.08333333333331,343,157,343C143.91666666666666,343,143.91666666666666,377,130.83333333333331,377C117.75,377,117.75,352.5,104.66666666666667,352.5C91.58333333333334,352.5,91.58333333333334,342,78.5,342C65.41666666666667,342,65.41666666666667,377,52.333333333333336,377C39.25,377,39.25,317.5,26.166666666666668,317.5C13.083333333333334,317.5,13.083333333333334,331.5,0,331.5Z"><title>9</title></path><path fill="rgb(247, 251, 255)" d="M0,331.5C13.083333333333334,331.5,13.083333333333334,317.5,26.166666666666668,317.5C39.25,317.5,39.25,377,52.333333333333336,377C65.41666666666667,377,65.41666666666667,342,78.5,342C91.58333333333334,342,91.58333333333334,352.5,104.66666666666667,352.5C117.75,352.5,117.75,377,130.83333333333331,377C143.91666666666666,377,143.91666666666666,342,157,342C170.08333333333331,342,170.08333333333331,311.5,183.16666666666666,311.5C196.25,311.5,196.25,254.50000000000003,209.33333333333334,254.50000000000003C222.41666666666669,254.50000000000003,222.41666666666669,352.5,235.5,352.5C248.58333333333331,352.5,248.58333333333331,310.5,261.66666666666663,310.5C274.75,310.5,274.75,318.5,287.8333333333333,318.5C300.91666666666663,318.5,300.91666666666663,254.50000000000003,314,254.50000000000003C327.08333333333337,254.50000000000003,327.08333333333337,315,340.1666666666667,315C353.25,315,353.25,444.5,366.3333333333333,444.5C379.41666666666663,444.5,379.41666666666663,329,392.5,329C405.58333333333337,329,405.58333333333337,308,418.6666666666667,308C431.75,308,431.75,254.50000000000003,444.8333333333333,254.50000000000003C457.91666666666663,254.50000000000003,457.91666666666663,335,471,335C484.0833333333333,335,484.0833333333333,318.5,497.16666666666663,318.5C510.24999999999994,318.5,510.24999999999994,402.5,523.3333333333333,402.5C536.4166666666666,402.5,536.4166666666666,357,549.5,357C562.5833333333333,357,562.5833333333333,366.5,575.6666666666666,366.5C588.75,366.5,588.75,311.5,601.8333333333334,311.5C614.9166666666667,311.5,614.9166666666667,311.5,628,311.5C641.0833333333334,311.5,641.0833333333334,374.5,654.1666666666667,374.5C667.25,374.5,667.25,360.5,680.3333333333334,360.5C693.4166666666667,360.5,693.4166666666667,346.5,706.5,346.5C719.5833333333333,346.5,719.5833333333333,546,732.6666666666666,546C745.75,546,745.75,360.5,758.8333333333334,360.5C771.9166666666667,360.5,771.9166666666667,255.50000000000003,785,255.50000000000003L785,304.5C771.9166666666667,304.5,771.9166666666667,360.5,758.8333333333334,360.5C745.75,360.5,745.75,546,732.6666666666666,546C719.5833333333333,546,719.5833333333333,346.5,706.5,346.5C693.4166666666667,346.5,693.4166666666667,360.5,680.3333333333334,360.5C667.25,360.5,667.25,374.5,654.1666666666667,374.5C641.0833333333334,374.5,641.0833333333334,311.5,628,311.5C614.9166666666667,311.5,614.9166666666667,311.5,601.8333333333334,311.5C588.75,311.5,588.75,366.5,575.6666666666666,366.5C562.5833333333333,366.5,562.5833333333333,357,549.5,357C536.4166666666666,357,536.4166666666666,402.5,523.3333333333333,402.5C510.24999999999994,402.5,510.24999999999994,318.5,497.16666666666663,318.5C484.0833333333333,318.5,484.0833333333333,335,471,335C457.91666666666663,335,457.91666666666663,303.5,444.8333333333333,303.5C431.75,303.5,431.75,308,418.6666666666667,308C405.58333333333337,308,405.58333333333337,329,392.5,329C379.41666666666663,329,379.41666666666663,444.5,366.3333333333333,444.5C353.25,444.5,353.25,315,340.1666666666667,315C327.08333333333337,315,327.08333333333337,303.5,314,303.5C300.91666666666663,303.5,300.91666666666663,318.5,287.8333333333333,318.5C274.75,318.5,274.75,310.5,261.66666666666663,310.5C248.58333333333331,310.5,248.58333333333331,352.5,235.5,352.5C222.41666666666669,352.5,222.41666666666669,303.5,209.33333333333334,303.5C196.25,303.5,196.25,311.5,183.16666666666666,311.5C170.08333333333331,311.5,170.08333333333331,342,157,342C143.91666666666666,342,143.91666666666666,377,130.83333333333331,377C117.75,377,117.75,352.5,104.66666666666667,352.5C91.58333333333334,352.5,91.58333333333334,342,78.5,342C65.41666666666667,342,65.41666666666667,377,52.333333333333336,377C39.25,377,39.25,317.5,26.166666666666668,317.5C13.083333333333334,317.5,13.083333333333334,331.5,0,331.5Z"><title>7</title></path><path fill="rgb(238, 245, 252)" d="M0,331.5C13.083333333333334,331.5,13.083333333333334,317.5,26.166666666666668,317.5C39.25,317.5,39.25,377,52.333333333333336,377C65.41666666666667,377,65.41666666666667,342,78.5,342C91.58333333333334,342,91.58333333333334,352.5,104.66666666666667,352.5C117.75,352.5,117.75,377,130.83333333333331,377C143.91666666666666,377,143.91666666666666,342,157,342C170.08333333333331,342,170.08333333333331,310.5,183.16666666666666,310.5C196.25,310.5,196.25,303.5,209.33333333333334,303.5C222.41666666666669,303.5,222.41666666666669,352.5,235.5,352.5C248.58333333333331,352.5,248.58333333333331,310.5,261.66666666666663,310.5C274.75,310.5,274.75,317.5,287.8333333333333,317.5C300.91666666666663,317.5,300.91666666666663,304.5,314,304.5C327.08333333333337,304.5,327.08333333333337,244,340.1666666666667,244C353.25,244,353.25,444.5,366.3333333333333,444.5C379.41666666666663,444.5,379.41666666666663,329,392.5,329C405.58333333333337,329,405.58333333333337,307,418.6666666666667,307C431.75,307,431.75,304.5,444.8333333333333,304.5C457.91666666666663,304.5,457.91666666666663,335,471,335C484.0833333333333,335,484.0833333333333,318.5,497.16666666666663,318.5C510.24999999999994,318.5,510.24999999999994,402.5,523.3333333333333,402.5C536.4166666666666,402.5,536.4166666666666,357,549.5,357C562.5833333333333,357,562.5833333333333,366.5,575.6666666666666,366.5C588.75,366.5,588.75,311.5,601.8333333333334,311.5C614.9166666666667,311.5,614.9166666666667,311.5,628,311.5C641.0833333333334,311.5,641.0833333333334,374.5,654.1666666666667,374.5C667.25,374.5,667.25,360.5,680.3333333333334,360.5C693.4166666666667,360.5,693.4166666666667,346.5,706.5,346.5C719.5833333333333,346.5,719.5833333333333,546,732.6666666666666,546C745.75,546,745.75,359.5,758.8333333333334,359.5C771.9166666666667,359.5,771.9166666666667,304.5,785,304.5L785,304.5C771.9166666666667,304.5,771.9166666666667,359.5,758.8333333333334,359.5C745.75,359.5,745.75,546,732.6666666666666,546C719.5833333333333,546,719.5833333333333,346.5,706.5,346.5C693.4166666666667,346.5,693.4166666666667,360.5,680.3333333333334,360.5C667.25,360.5,667.25,374.5,654.1666666666667,374.5C641.0833333333334,374.5,641.0833333333334,311.5,628,311.5C614.9166666666667,311.5,614.9166666666667,311.5,601.8333333333334,311.5C588.75,311.5,588.75,366.5,575.6666666666666,366.5C562.5833333333333,366.5,562.5833333333333,357,549.5,357C536.4166666666666,357,536.4166666666666,402.5,523.3333333333333,402.5C510.24999999999994,402.5,510.24999999999994,318.5,497.16666666666663,318.5C484.0833333333333,318.5,484.0833333333333,335,471,335C457.91666666666663,335,457.91666666666663,304.5,444.8333333333333,304.5C431.75,304.5,431.75,307,418.6666666666667,307C405.58333333333337,307,405.58333333333337,329,392.5,329C379.41666666666663,329,379.41666666666663,444.5,366.3333333333333,444.5C353.25,444.5,353.25,314,340.1666666666667,314C327.08333333333337,314,327.08333333333337,304.5,314,304.5C300.91666666666663,304.5,300.91666666666663,317.5,287.8333333333333,317.5C274.75,317.5,274.75,310.5,261.66666666666663,310.5C248.58333333333331,310.5,248.58333333333331,352.5,235.5,352.5C222.41666666666669,352.5,222.41666666666669,303.5,209.33333333333334,303.5C196.25,303.5,196.25,310.5,183.16666666666666,310.5C170.08333333333331,310.5,170.08333333333331,342,157,342C143.91666666666666,342,143.91666666666666,377,130.83333333333331,377C117.75,377,117.75,352.5,104.66666666666667,352.5C91.58333333333334,352.5,91.58333333333334,342,78.5,342C65.41666666666667,342,65.41666666666667,377,52.333333333333336,377C39.25,377,39.25,317.5,26.166666666666668,317.5C13.083333333333334,317.5,13.083333333333334,331.5,0,331.5Z"><title>10</title></path><path fill="rgb(81, 156, 204)" d="M0,331.5C13.083333333333334,331.5,13.083333333333334,317.5,26.166666666666668,317.5C39.25,317.5,39.25,377,52.333333333333336,377C65.41666666666667,377,65.41666666666667,342,78.5,342C91.58333333333334,342,91.58333333333334,352.5,104.66666666666667,352.5C117.75,352.5,117.75,377,130.83333333333331,377C143.91666666666666,377,143.91666666666666,342,157,342C170.08333333333331,342,170.08333333333331,310.5,183.16666666666666,310.5C196.25,310.5,196.25,303.5,209.33333333333334,303.5C222.41666666666669,303.5,222.41666666666669,352.5,235.5,352.5C248.58333333333331,352.5,248.58333333333331,310.5,261.66666666666663,310.5C274.75,310.5,274.75,317.5,287.8333333333333,317.5C300.91666666666663,317.5,300.91666666666663,303.5,314,303.5C327.08333333333337,303.5,327.08333333333337,315,340.1666666666667,315C353.25,315,353.25,114.50000000000003,366.3333333333333,114.50000000000003C379.41666666666663,114.50000000000003,379.41666666666663,329,392.5,329C405.58333333333337,329,405.58333333333337,307,418.6666666666667,307C431.75,307,431.75,304.5,444.8333333333333,304.5C457.91666666666663,304.5,457.91666666666663,335,471,335C484.0833333333333,335,484.0833333333333,318.5,497.16666666666663,318.5C510.24999999999994,318.5,510.24999999999994,402.5,523.3333333333333,402.5C536.4166666666666,402.5,536.4166666666666,357,549.5,357C562.5833333333333,357,562.5833333333333,366.5,575.6666666666666,366.5C588.75,366.5,588.75,311.5,601.8333333333334,311.5C614.9166666666667,311.5,614.9166666666667,311.5,628,311.5C641.0833333333334,311.5,641.0833333333334,374.5,654.1666666666667,374.5C667.25,374.5,667.25,360.5,680.3333333333334,360.5C693.4166666666667,360.5,693.4166666666667,346.5,706.5,346.5C719.5833333333333,346.5,719.5833333333333,546,732.6666666666666,546C745.75,546,745.75,359.5,758.8333333333334,359.5C771.9166666666667,359.5,771.9166666666667,304.5,785,304.5L785,304.5C771.9166666666667,304.5,771.9166666666667,359.5,758.8333333333334,359.5C745.75,359.5,745.75,546,732.6666666666666,546C719.5833333333333,546,719.5833333333333,346.5,706.5,346.5C693.4166666666667,346.5,693.4166666666667,360.5,680.3333333333334,360.5C667.25,360.5,667.25,374.5,654.1666666666667,374.5C641.0833333333334,374.5,641.0833333333334,311.5,628,311.5C614.9166666666667,311.5,614.9166666666667,311.5,601.8333333333334,311.5C588.75,311.5,588.75,366.5,575.6666666666666,366.5C562.5833333333333,366.5,562.5833333333333,357,549.5,357C536.4166666666666,357,536.4166666666666,402.5,523.3333333333333,402.5C510.24999999999994,402.5,510.24999999999994,318.5,497.16666666666663,318.5C484.0833333333333,318.5,484.0833333333333,335,471,335C457.91666666666663,335,457.91666666666663,304.5,444.8333333333333,304.5C431.75,304.5,431.75,307,418.6666666666667,307C405.58333333333337,307,405.58333333333337,329,392.5,329C379.41666666666663,329,379.41666666666663,443.5,366.3333333333333,443.5C353.25,443.5,353.25,315,340.1666666666667,315C327.08333333333337,315,327.08333333333337,303.5,314,303.5C300.91666666666663,303.5,300.91666666666663,317.5,287.8333333333333,317.5C274.75,317.5,274.75,310.5,261.66666666666663,310.5C248.58333333333331,310.5,248.58333333333331,352.5,235.5,352.5C222.41666666666669,352.5,222.41666666666669,303.5,209.33333333333334,303.5C196.25,303.5,196.25,310.5,183.16666666666666,310.5C170.08333333333331,310.5,170.08333333333331,342,157,342C143.91666666666666,342,143.91666666666666,377,130.83333333333331,377C117.75,377,117.75,352.5,104.66666666666667,352.5C91.58333333333334,352.5,91.58333333333334,342,78.5,342C65.41666666666667,342,65.41666666666667,377,52.333333333333336,377C39.25,377,39.25,317.5,26.166666666666668,317.5C13.083333333333334,317.5,13.083333333333334,331.5,0,331.5Z"><title>47</title></path><path fill="rgb(227, 238, 249)" d="M0,331.5C13.083333333333334,331.5,13.083333333333334,317.5,26.166666666666668,317.5C39.25,317.5,39.25,377,52.333333333333336,377C65.41666666666667,377,65.41666666666667,342,78.5,342C91.58333333333334,342,91.58333333333334,352.5,104.66666666666667,352.5C117.75,352.5,117.75,377,130.83333333333331,377C143.91666666666666,377,143.91666666666666,342,157,342C170.08333333333331,342,170.08333333333331,310.5,183.16666666666666,310.5C196.25,310.5,196.25,303.5,209.33333333333334,303.5C222.41666666666669,303.5,222.41666666666669,352.5,235.5,352.5C248.58333333333331,352.5,248.58333333333331,310.5,261.66666666666663,310.5C274.75,310.5,274.75,317.5,287.8333333333333,317.5C300.91666666666663,317.5,300.91666666666663,303.5,314,303.5C327.08333333333337,303.5,327.08333333333337,314,340.1666666666667,314C353.25,314,353.25,444.5,366.3333333333333,444.5C379.41666666666663,444.5,379.41666666666663,230,392.5,230C405.58333333333337,230,405.58333333333337,307,418.6666666666667,307C431.75,307,431.75,304.5,444.8333333333333,304.5C457.91666666666663,304.5,457.91666666666663,335,471,335C484.0833333333333,335,484.0833333333333,318.5,497.16666666666663,318.5C510.24999999999994,318.5,510.24999999999994,402.5,523.3333333333333,402.5C536.4166666666666,402.5,536.4166666666666,357,549.5,357C562.5833333333333,357,562.5833333333333,366.5,575.6666666666666,366.5C588.75,366.5,588.75,311.5,601.8333333333334,311.5C614.9166666666667,311.5,614.9166666666667,311.5,628,311.5C641.0833333333334,311.5,641.0833333333334,374.5,654.1666666666667,374.5C667.25,374.5,667.25,360.5,680.3333333333334,360.5C693.4166666666667,360.5,693.4166666666667,346.5,706.5,346.5C719.5833333333333,346.5,719.5833333333333,546,732.6666666666666,546C745.75,546,745.75,359.5,758.8333333333334,359.5C771.9166666666667,359.5,771.9166666666667,304.5,785,304.5L785,304.5C771.9166666666667,304.5,771.9166666666667,359.5,758.8333333333334,359.5C745.75,359.5,745.75,546,732.6666666666666,546C719.5833333333333,546,719.5833333333333,346.5,706.5,346.5C693.4166666666667,346.5,693.4166666666667,360.5,680.3333333333334,360.5C667.25,360.5,667.25,374.5,654.1666666666667,374.5C641.0833333333334,374.5,641.0833333333334,311.5,628,311.5C614.9166666666667,311.5,614.9166666666667,311.5,601.8333333333334,311.5C588.75,311.5,588.75,366.5,575.6666666666666,366.5C562.5833333333333,366.5,562.5833333333333,357,549.5,357C536.4166666666666,357,536.4166666666666,402.5,523.3333333333333,402.5C510.24999999999994,402.5,510.24999999999994,318.5,497.16666666666663,318.5C484.0833333333333,318.5,484.0833333333333,335,471,335C457.91666666666663,335,457.91666666666663,304.5,444.8333333333333,304.5C431.75,304.5,431.75,307,418.6666666666667,307C405.58333333333337,307,405.58333333333337,328,392.5,328C379.41666666666663,328,379.41666666666663,444.5,366.3333333333333,444.5C353.25,444.5,353.25,314,340.1666666666667,314C327.08333333333337,314,327.08333333333337,303.5,314,303.5C300.91666666666663,303.5,300.91666666666663,317.5,287.8333333333333,317.5C274.75,317.5,274.75,310.5,261.66666666666663,310.5C248.58333333333331,310.5,248.58333333333331,352.5,235.5,352.5C222.41666666666669,352.5,222.41666666666669,303.5,209.33333333333334,303.5C196.25,303.5,196.25,310.5,183.16666666666666,310.5C170.08333333333331,310.5,170.08333333333331,342,157,342C143.91666666666666,342,143.91666666666666,377,130.83333333333331,377C117.75,377,117.75,352.5,104.66666666666667,352.5C91.58333333333334,352.5,91.58333333333334,342,78.5,342C65.41666666666667,342,65.41666666666667,377,52.333333333333336,377C39.25,377,39.25,317.5,26.166666666666668,317.5C13.083333333333334,317.5,13.083333333333334,331.5,0,331.5Z"><title>14</title></path><path fill="rgb(244, 249, 254)" d="M0,331.5C13.083333333333334,331.5,13.083333333333334,317.5,26.166666666666668,317.5C39.25,317.5,39.25,377,52.333333333333336,377C65.41666666666667,377,65.41666666666667,342,78.5,342C91.58333333333334,342,91.58333333333334,352.5,104.66666666666667,352.5C117.75,352.5,117.75,377,130.83333333333331,377C143.91666666666666,377,143.91666666666666,342,157,342C170.08333333333331,342,170.08333333333331,310.5,183.16666666666666,310.5C196.25,310.5,196.25,303.5,209.33333333333334,303.5C222.41666666666669,303.5,222.41666666666669,352.5,235.5,352.5C248.58333333333331,352.5,248.58333333333331,310.5,261.66666666666663,310.5C274.75,310.5,274.75,317.5,287.8333333333333,317.5C300.91666666666663,317.5,300.91666666666663,303.5,314,303.5C327.08333333333337,303.5,327.08333333333337,314,340.1666666666667,314C353.25,314,353.25,443.5,366.3333333333333,443.5C379.41666666666663,443.5,379.41666666666663,329,392.5,329C405.58333333333337,329,405.58333333333337,250.99999999999997,418.6666666666667,250.99999999999997C431.75,250.99999999999997,431.75,304.5,444.8333333333333,304.5C457.91666666666663,304.5,457.91666666666663,335,471,335C484.0833333333333,335,484.0833333333333,318.5,497.16666666666663,318.5C510.24999999999994,318.5,510.24999999999994,402.5,523.3333333333333,402.5C536.4166666666666,402.5,536.4166666666666,357,549.5,357C562.5833333333333,357,562.5833333333333,366.5,575.6666666666666,366.5C588.75,366.5,588.75,311.5,601.8333333333334,311.5C614.9166666666667,311.5,614.9166666666667,311.5,628,311.5C641.0833333333334,311.5,641.0833333333334,374.5,654.1666666666667,374.5C667.25,374.5,667.25,360.5,680.3333333333334,360.5C693.4166666666667,360.5,693.4166666666667,346.5,706.5,346.5C719.5833333333333,346.5,719.5833333333333,546,732.6666666666666,546C745.75,546,745.75,359.5,758.8333333333334,359.5C771.9166666666667,359.5,771.9166666666667,304.5,785,304.5L785,304.5C771.9166666666667,304.5,771.9166666666667,359.5,758.8333333333334,359.5C745.75,359.5,745.75,546,732.6666666666666,546C719.5833333333333,546,719.5833333333333,346.5,706.5,346.5C693.4166666666667,346.5,693.4166666666667,360.5,680.3333333333334,360.5C667.25,360.5,667.25,374.5,654.1666666666667,374.5C641.0833333333334,374.5,641.0833333333334,311.5,628,311.5C614.9166666666667,311.5,614.9166666666667,311.5,601.8333333333334,311.5C588.75,311.5,588.75,366.5,575.6666666666666,366.5C562.5833333333333,366.5,562.5833333333333,357,549.5,357C536.4166666666666,357,536.4166666666666,402.5,523.3333333333333,402.5C510.24999999999994,402.5,510.24999999999994,318.5,497.16666666666663,318.5C484.0833333333333,318.5,484.0833333333333,335,471,335C457.91666666666663,335,457.91666666666663,304.5,444.8333333333333,304.5C431.75,304.5,431.75,307,418.6666666666667,307C405.58333333333337,307,405.58333333333337,329,392.5,329C379.41666666666663,329,379.41666666666663,443.5,366.3333333333333,443.5C353.25,443.5,353.25,314,340.1666666666667,314C327.08333333333337,314,327.08333333333337,303.5,314,303.5C300.91666666666663,303.5,300.91666666666663,317.5,287.8333333333333,317.5C274.75,317.5,274.75,310.5,261.66666666666663,310.5C248.58333333333331,310.5,248.58333333333331,352.5,235.5,352.5C222.41666666666669,352.5,222.41666666666669,303.5,209.33333333333334,303.5C196.25,303.5,196.25,310.5,183.16666666666666,310.5C170.08333333333331,310.5,170.08333333333331,342,157,342C143.91666666666666,342,143.91666666666666,377,130.83333333333331,377C117.75,377,117.75,352.5,104.66666666666667,352.5C91.58333333333334,352.5,91.58333333333334,342,78.5,342C65.41666666666667,342,65.41666666666667,377,52.333333333333336,377C39.25,377,39.25,317.5,26.166666666666668,317.5C13.083333333333334,317.5,13.083333333333334,331.5,0,331.5Z"><title>8</title></path><path fill="rgb(221, 234, 247)" d="M0,331.5C13.083333333333334,331.5,13.083333333333334,317.5,26.166666666666668,317.5C39.25,317.5,39.25,377,52.333333333333336,377C65.41666666666667,377,65.41666666666667,342,78.5,342C91.58333333333334,342,91.58333333333334,352.5,104.66666666666667,352.5C117.75,352.5,117.75,377,130.83333333333331,377C143.91666666666666,377,143.91666666666666,342,157,342C170.08333333333331,342,170.08333333333331,310.5,183.16666666666666,310.5C196.25,310.5,196.25,303.5,209.33333333333334,303.5C222.41666666666669,303.5,222.41666666666669,352.5,235.5,352.5C248.58333333333331,352.5,248.58333333333331,310.5,261.66666666666663,310.5C274.75,310.5,274.75,317.5,287.8333333333333,317.5C300.91666666666663,317.5,300.91666666666663,303.5,314,303.5C327.08333333333337,303.5,327.08333333333337,314,340.1666666666667,314C353.25,314,353.25,443.5,366.3333333333333,443.5C379.41666666666663,443.5,379.41666666666663,328,392.5,328C405.58333333333337,328,405.58333333333337,307,418.6666666666667,307C431.75,307,431.75,304.5,444.8333333333333,304.5C457.91666666666663,304.5,457.91666666666663,223,471,223C484.0833333333333,223,484.0833333333333,318.5,497.16666666666663,318.5C510.24999999999994,318.5,510.24999999999994,402.5,523.3333333333333,402.5C536.4166666666666,402.5,536.4166666666666,357,549.5,357C562.5833333333333,357,562.5833333333333,366.5,575.6666666666666,366.5C588.75,366.5,588.75,311.5,601.8333333333334,311.5C614.9166666666667,311.5,614.9166666666667,311.5,628,311.5C641.0833333333334,311.5,641.0833333333334,374.5,654.1666666666667,374.5C667.25,374.5,667.25,360.5,680.3333333333334,360.5C693.4166666666667,360.5,693.4166666666667,346.5,706.5,346.5C719.5833333333333,346.5,719.5833333333333,546,732.6666666666666,546C745.75,546,745.75,359.5,758.8333333333334,359.5C771.9166666666667,359.5,771.9166666666667,304.5,785,304.5L785,304.5C771.9166666666667,304.5,771.9166666666667,359.5,758.8333333333334,359.5C745.75,359.5,745.75,546,732.6666666666666,546C719.5833333333333,546,719.5833333333333,346.5,706.5,346.5C693.4166666666667,346.5,693.4166666666667,360.5,680.3333333333334,360.5C667.25,360.5,667.25,374.5,654.1666666666667,374.5C641.0833333333334,374.5,641.0833333333334,311.5,628,311.5C614.9166666666667,311.5,614.9166666666667,311.5,601.8333333333334,311.5C588.75,311.5,588.75,366.5,575.6666666666666,366.5C562.5833333333333,366.5,562.5833333333333,357,549.5,357C536.4166666666666,357,536.4166666666666,402.5,523.3333333333333,402.5C510.24999999999994,402.5,510.24999999999994,318.5,497.16666666666663,318.5C484.0833333333333,318.5,484.0833333333333,335,471,335C457.91666666666663,335,457.91666666666663,304.5,444.8333333333333,304.5C431.75,304.5,431.75,307,418.6666666666667,307C405.58333333333337,307,405.58333333333337,328,392.5,328C379.41666666666663,328,379.41666666666663,443.5,366.3333333333333,443.5C353.25,443.5,353.25,314,340.1666666666667,314C327.08333333333337,314,327.08333333333337,303.5,314,303.5C300.91666666666663,303.5,300.91666666666663,317.5,287.8333333333333,317.5C274.75,317.5,274.75,310.5,261.66666666666663,310.5C248.58333333333331,310.5,248.58333333333331,352.5,235.5,352.5C222.41666666666669,352.5,222.41666666666669,303.5,209.33333333333334,303.5C196.25,303.5,196.25,310.5,183.16666666666666,310.5C170.08333333333331,310.5,170.08333333333331,342,157,342C143.91666666666666,342,143.91666666666666,377,130.83333333333331,377C117.75,377,117.75,352.5,104.66666666666667,352.5C91.58333333333334,352.5,91.58333333333334,342,78.5,342C65.41666666666667,342,65.41666666666667,377,52.333333333333336,377C39.25,377,39.25,317.5,26.166666666666668,317.5C13.083333333333334,317.5,13.083333333333334,331.5,0,331.5Z"><title>16</title></path><path fill="rgb(145, 194, 222)" d="M0,331.5C13.083333333333334,331.5,13.083333333333334,317.5,26.166666666666668,317.5C39.25,317.5,39.25,377,52.333333333333336,377C65.41666666666667,377,65.41666666666667,342,78.5,342C91.58333333333334,342,91.58333333333334,352.5,104.66666666666667,352.5C117.75,352.5,117.75,377,130.83333333333331,377C143.91666666666666,377,143.91666666666666,342,157,342C170.08333333333331,342,170.08333333333331,310.5,183.16666666666666,310.5C196.25,310.5,196.25,303.5,209.33333333333334,303.5C222.41666666666669,303.5,222.41666666666669,352.5,235.5,352.5C248.58333333333331,352.5,248.58333333333331,310.5,261.66666666666663,310.5C274.75,310.5,274.75,317.5,287.8333333333333,317.5C300.91666666666663,317.5,300.91666666666663,303.5,314,303.5C327.08333333333337,303.5,327.08333333333337,314,340.1666666666667,314C353.25,314,353.25,443.5,366.3333333333333,443.5C379.41666666666663,443.5,379.41666666666663,328,392.5,328C405.58333333333337,328,405.58333333333337,307,418.6666666666667,307C431.75,307,431.75,303.5,444.8333333333333,303.5C457.91666666666663,303.5,457.91666666666663,335,471,335C484.0833333333333,335,484.0833333333333,318.5,497.16666666666663,318.5C510.24999999999994,318.5,510.24999999999994,156.5,523.3333333333333,156.5C536.4166666666666,156.5,536.4166666666666,357,549.5,357C562.5833333333333,357,562.5833333333333,366.5,575.6666666666666,366.5C588.75,366.5,588.75,311.5,601.8333333333334,311.5C614.9166666666667,311.5,614.9166666666667,311.5,628,311.5C641.0833333333334,311.5,641.0833333333334,374.5,654.1666666666667,374.5C667.25,374.5,667.25,360.5,680.3333333333334,360.5C693.4166666666667,360.5,693.4166666666667,346.5,706.5,346.5C719.5833333333333,346.5,719.5833333333333,546,732.6666666666666,546C745.75,546,745.75,359.5,758.8333333333334,359.5C771.9166666666667,359.5,771.9166666666667,304.5,785,304.5L785,304.5C771.9166666666667,304.5,771.9166666666667,359.5,758.8333333333334,359.5C745.75,359.5,745.75,546,732.6666666666666,546C719.5833333333333,546,719.5833333333333,346.5,706.5,346.5C693.4166666666667,346.5,693.4166666666667,360.5,680.3333333333334,360.5C667.25,360.5,667.25,374.5,654.1666666666667,374.5C641.0833333333334,374.5,641.0833333333334,311.5,628,311.5C614.9166666666667,311.5,614.9166666666667,311.5,601.8333333333334,311.5C588.75,311.5,588.75,366.5,575.6666666666666,366.5C562.5833333333333,366.5,562.5833333333333,357,549.5,357C536.4166666666666,357,536.4166666666666,401.5,523.3333333333333,401.5C510.24999999999994,401.5,510.24999999999994,318.5,497.16666666666663,318.5C484.0833333333333,318.5,484.0833333333333,335,471,335C457.91666666666663,335,457.91666666666663,303.5,444.8333333333333,303.5C431.75,303.5,431.75,307,418.6666666666667,307C405.58333333333337,307,405.58333333333337,328,392.5,328C379.41666666666663,328,379.41666666666663,443.5,366.3333333333333,443.5C353.25,443.5,353.25,314,340.1666666666667,314C327.08333333333337,314,327.08333333333337,303.5,314,303.5C300.91666666666663,303.5,300.91666666666663,317.5,287.8333333333333,317.5C274.75,317.5,274.75,310.5,261.66666666666663,310.5C248.58333333333331,310.5,248.58333333333331,352.5,235.5,352.5C222.41666666666669,352.5,222.41666666666669,303.5,209.33333333333334,303.5C196.25,303.5,196.25,310.5,183.16666666666666,310.5C170.08333333333331,310.5,170.08333333333331,342,157,342C143.91666666666666,342,143.91666666666666,377,130.83333333333331,377C117.75,377,117.75,352.5,104.66666666666667,352.5C91.58333333333334,352.5,91.58333333333334,342,78.5,342C65.41666666666667,342,65.41666666666667,377,52.333333333333336,377C39.25,377,39.25,317.5,26.166666666666668,317.5C13.083333333333334,317.5,13.083333333333334,331.5,0,331.5Z"><title>35</title></path><path fill="rgb(203, 223, 241)" d="M0,331.5C13.083333333333334,331.5,13.083333333333334,317.5,26.166666666666668,317.5C39.25,317.5,39.25,377,52.333333333333336,377C65.41666666666667,377,65.41666666666667,342,78.5,342C91.58333333333334,342,91.58333333333334,352.5,104.66666666666667,352.5C117.75,352.5,117.75,377,130.83333333333331,377C143.91666666666666,377,143.91666666666666,342,157,342C170.08333333333331,342,170.08333333333331,310.5,183.16666666666666,310.5C196.25,310.5,196.25,303.5,209.33333333333334,303.5C222.41666666666669,303.5,222.41666666666669,352.5,235.5,352.5C248.58333333333331,352.5,248.58333333333331,310.5,261.66666666666663,310.5C274.75,310.5,274.75,317.5,287.8333333333333,317.5C300.91666666666663,317.5,300.91666666666663,303.5,314,303.5C327.08333333333337,303.5,327.08333333333337,314,340.1666666666667,314C353.25,314,353.25,443.5,366.3333333333333,443.5C379.41666666666663,443.5,379.41666666666663,328,392.5,328C405.58333333333337,328,405.58333333333337,307,418.6666666666667,307C431.75,307,431.75,303.5,444.8333333333333,303.5C457.91666666666663,303.5,457.91666666666663,335,471,335C484.0833333333333,335,484.0833333333333,317.5,497.16666666666663,317.5C510.24999999999994,317.5,510.24999999999994,402.5,523.3333333333333,402.5C536.4166666666666,402.5,536.4166666666666,202.00000000000003,549.5,202.00000000000003C562.5833333333333,202.00000000000003,562.5833333333333,366.5,575.6666666666666,366.5C588.75,366.5,588.75,311.5,601.8333333333334,311.5C614.9166666666667,311.5,614.9166666666667,311.5,628,311.5C641.0833333333334,311.5,641.0833333333334,374.5,654.1666666666667,374.5C667.25,374.5,667.25,360.5,680.3333333333334,360.5C693.4166666666667,360.5,693.4166666666667,346.5,706.5,346.5C719.5833333333333,346.5,719.5833333333333,546,732.6666666666666,546C745.75,546,745.75,359.5,758.8333333333334,359.5C771.9166666666667,359.5,771.9166666666667,304.5,785,304.5L785,304.5C771.9166666666667,304.5,771.9166666666667,359.5,758.8333333333334,359.5C745.75,359.5,745.75,546,732.6666666666666,546C719.5833333333333,546,719.5833333333333,346.5,706.5,346.5C693.4166666666667,346.5,693.4166666666667,360.5,680.3333333333334,360.5C667.25,360.5,667.25,374.5,654.1666666666667,374.5C641.0833333333334,374.5,641.0833333333334,311.5,628,311.5C614.9166666666667,311.5,614.9166666666667,311.5,601.8333333333334,311.5C588.75,311.5,588.75,366.5,575.6666666666666,366.5C562.5833333333333,366.5,562.5833333333333,356,549.5,356C536.4166666666666,356,536.4166666666666,402.5,523.3333333333333,402.5C510.24999999999994,402.5,510.24999999999994,317.5,497.16666666666663,317.5C484.0833333333333,317.5,484.0833333333333,335,471,335C457.91666666666663,335,457.91666666666663,303.5,444.8333333333333,303.5C431.75,303.5,431.75,307,418.6666666666667,307C405.58333333333337,307,405.58333333333337,328,392.5,328C379.41666666666663,328,379.41666666666663,443.5,366.3333333333333,443.5C353.25,443.5,353.25,314,340.1666666666667,314C327.08333333333337,314,327.08333333333337,303.5,314,303.5C300.91666666666663,303.5,300.91666666666663,317.5,287.8333333333333,317.5C274.75,317.5,274.75,310.5,261.66666666666663,310.5C248.58333333333331,310.5,248.58333333333331,352.5,235.5,352.5C222.41666666666669,352.5,222.41666666666669,303.5,209.33333333333334,303.5C196.25,303.5,196.25,310.5,183.16666666666666,310.5C170.08333333333331,310.5,170.08333333333331,342,157,342C143.91666666666666,342,143.91666666666666,377,130.83333333333331,377C117.75,377,117.75,352.5,104.66666666666667,352.5C91.58333333333334,352.5,91.58333333333334,342,78.5,342C65.41666666666667,342,65.41666666666667,377,52.333333333333336,377C39.25,377,39.25,317.5,26.166666666666668,317.5C13.083333333333334,317.5,13.083333333333334,331.5,0,331.5Z"><title>22</title></path><path fill="rgb(192, 217, 237)" d="M0,331.5C13.083333333333334,331.5,13.083333333333334,317.5,26.166666666666668,317.5C39.25,317.5,39.25,377,52.333333333333336,377C65.41666666666667,377,65.41666666666667,342,78.5,342C91.58333333333334,342,91.58333333333334,352.5,104.66666666666667,352.5C117.75,352.5,117.75,377,130.83333333333331,377C143.91666666666666,377,143.91666666666666,342,157,342C170.08333333333331,342,170.08333333333331,310.5,183.16666666666666,310.5C196.25,310.5,196.25,303.5,209.33333333333334,303.5C222.41666666666669,303.5,222.41666666666669,352.5,235.5,352.5C248.58333333333331,352.5,248.58333333333331,310.5,261.66666666666663,310.5C274.75,310.5,274.75,317.5,287.8333333333333,317.5C300.91666666666663,317.5,300.91666666666663,303.5,314,303.5C327.08333333333337,303.5,327.08333333333337,314,340.1666666666667,314C353.25,314,353.25,443.5,366.3333333333333,443.5C379.41666666666663,443.5,379.41666666666663,328,392.5,328C405.58333333333337,328,405.58333333333337,307,418.6666666666667,307C431.75,307,431.75,303.5,444.8333333333333,303.5C457.91666666666663,303.5,457.91666666666663,335,471,335C484.0833333333333,335,484.0833333333333,317.5,497.16666666666663,317.5C510.24999999999994,317.5,510.24999999999994,401.5,523.3333333333333,401.5C536.4166666666666,401.5,536.4166666666666,357,549.5,357C562.5833333333333,357,562.5833333333333,191.5,575.6666666666666,191.5C588.75,191.5,588.75,311.5,601.8333333333334,311.5C614.9166666666667,311.5,614.9166666666667,311.5,628,311.5C641.0833333333334,311.5,641.0833333333334,374.5,654.1666666666667,374.5C667.25,374.5,667.25,360.5,680.3333333333334,360.5C693.4166666666667,360.5,693.4166666666667,346.5,706.5,346.5C719.5833333333333,346.5,719.5833333333333,546,732.6666666666666,546C745.75,546,745.75,359.5,758.8333333333334,359.5C771.9166666666667,359.5,771.9166666666667,304.5,785,304.5L785,304.5C771.9166666666667,304.5,771.9166666666667,359.5,758.8333333333334,359.5C745.75,359.5,745.75,546,732.6666666666666,546C719.5833333333333,546,719.5833333333333,346.5,706.5,346.5C693.4166666666667,346.5,693.4166666666667,360.5,680.3333333333334,360.5C667.25,360.5,667.25,374.5,654.1666666666667,374.5C641.0833333333334,374.5,641.0833333333334,311.5,628,311.5C614.9166666666667,311.5,614.9166666666667,311.5,601.8333333333334,311.5C588.75,311.5,588.75,366.5,575.6666666666666,366.5C562.5833333333333,366.5,562.5833333333333,357,549.5,357C536.4166666666666,357,536.4166666666666,401.5,523.3333333333333,401.5C510.24999999999994,401.5,510.24999999999994,317.5,497.16666666666663,317.5C484.0833333333333,317.5,484.0833333333333,335,471,335C457.91666666666663,335,457.91666666666663,303.5,444.8333333333333,303.5C431.75,303.5,431.75,307,418.6666666666667,307C405.58333333333337,307,405.58333333333337,328,392.5,328C379.41666666666663,328,379.41666666666663,443.5,366.3333333333333,443.5C353.25,443.5,353.25,314,340.1666666666667,314C327.08333333333337,314,327.08333333333337,303.5,314,303.5C300.91666666666663,303.5,300.91666666666663,317.5,287.8333333333333,317.5C274.75,317.5,274.75,310.5,261.66666666666663,310.5C248.58333333333331,310.5,248.58333333333331,352.5,235.5,352.5C222.41666666666669,352.5,222.41666666666669,303.5,209.33333333333334,303.5C196.25,303.5,196.25,310.5,183.16666666666666,310.5C170.08333333333331,310.5,170.08333333333331,342,157,342C143.91666666666666,342,143.91666666666666,377,130.83333333333331,377C117.75,377,117.75,352.5,104.66666666666667,352.5C91.58333333333334,352.5,91.58333333333334,342,78.5,342C65.41666666666667,342,65.41666666666667,377,52.333333333333336,377C39.25,377,39.25,317.5,26.166666666666668,317.5C13.083333333333334,317.5,13.083333333333334,331.5,0,331.5Z"><title>25</title></path><path fill="rgb(184, 213, 234)" d="M0,331.5C13.083333333333334,331.5,13.083333333333334,317.5,26.166666666666668,317.5C39.25,317.5,39.25,377,52.333333333333336,377C65.41666666666667,377,65.41666666666667,342,78.5,342C91.58333333333334,342,91.58333333333334,352.5,104.66666666666667,352.5C117.75,352.5,117.75,377,130.83333333333331,377C143.91666666666666,377,143.91666666666666,342,157,342C170.08333333333331,342,170.08333333333331,310.5,183.16666666666666,310.5C196.25,310.5,196.25,303.5,209.33333333333334,303.5C222.41666666666669,303.5,222.41666666666669,352.5,235.5,352.5C248.58333333333331,352.5,248.58333333333331,310.5,261.66666666666663,310.5C274.75,310.5,274.75,317.5,287.8333333333333,317.5C300.91666666666663,317.5,300.91666666666663,303.5,314,303.5C327.08333333333337,303.5,327.08333333333337,314,340.1666666666667,314C353.25,314,353.25,443.5,366.3333333333333,443.5C379.41666666666663,443.5,379.41666666666663,328,392.5,328C405.58333333333337,328,405.58333333333337,307,418.6666666666667,307C431.75,307,431.75,303.5,444.8333333333333,303.5C457.91666666666663,303.5,457.91666666666663,335,471,335C484.0833333333333,335,484.0833333333333,317.5,497.16666666666663,317.5C510.24999999999994,317.5,510.24999999999994,401.5,523.3333333333333,401.5C536.4166666666666,401.5,536.4166666666666,356,549.5,356C562.5833333333333,356,562.5833333333333,366.5,575.6666666666666,366.5C588.75,366.5,588.75,311.5,601.8333333333334,311.5C614.9166666666667,311.5,614.9166666666667,311.5,628,311.5C641.0833333333334,311.5,641.0833333333334,184.50000000000003,654.1666666666667,184.50000000000003C667.25,184.50000000000003,667.25,360.5,680.3333333333334,360.5C693.4166666666667,360.5,693.4166666666667,346.5,706.5,346.5C719.5833333333333,346.5,719.5833333333333,546,732.6666666666666,546C745.75,546,745.75,359.5,758.8333333333334,359.5C771.9166666666667,359.5,771.9166666666667,304.5,785,304.5L785,304.5C771.9166666666667,304.5,771.9166666666667,359.5,758.8333333333334,359.5C745.75,359.5,745.75,546,732.6666666666666,546C719.5833333333333,546,719.5833333333333,346.5,706.5,346.5C693.4166666666667,346.5,693.4166666666667,360.5,680.3333333333334,360.5C667.25,360.5,667.25,373.5,654.1666666666667,373.5C641.0833333333334,373.5,641.0833333333334,311.5,628,311.5C614.9166666666667,311.5,614.9166666666667,311.5,601.8333333333334,311.5C588.75,311.5,588.75,366.5,575.6666666666666,366.5C562.5833333333333,366.5,562.5833333333333,356,549.5,356C536.4166666666666,356,536.4166666666666,401.5,523.3333333333333,401.5C510.24999999999994,401.5,510.24999999999994,317.5,497.16666666666663,317.5C484.0833333333333,317.5,484.0833333333333,335,471,335C457.91666666666663,335,457.91666666666663,303.5,444.8333333333333,303.5C431.75,303.5,431.75,307,418.6666666666667,307C405.58333333333337,307,405.58333333333337,328,392.5,328C379.41666666666663,328,379.41666666666663,443.5,366.3333333333333,443.5C353.25,443.5,353.25,314,340.1666666666667,314C327.08333333333337,314,327.08333333333337,303.5,314,303.5C300.91666666666663,303.5,300.91666666666663,317.5,287.8333333333333,317.5C274.75,317.5,274.75,310.5,261.66666666666663,310.5C248.58333333333331,310.5,248.58333333333331,352.5,235.5,352.5C222.41666666666669,352.5,222.41666666666669,303.5,209.33333333333334,303.5C196.25,303.5,196.25,310.5,183.16666666666666,310.5C170.08333333333331,310.5,170.08333333333331,342,157,342C143.91666666666666,342,143.91666666666666,377,130.83333333333331,377C117.75,377,117.75,352.5,104.66666666666667,352.5C91.58333333333334,352.5,91.58333333333334,342,78.5,342C65.41666666666667,342,65.41666666666667,377,52.333333333333336,377C39.25,377,39.25,317.5,26.166666666666668,317.5C13.083333333333334,317.5,13.083333333333334,331.5,0,331.5Z"><title>27</title></path><path fill="rgb(200, 221, 240)" d="M0,331.5C13.083333333333334,331.5,13.083333333333334,317.5,26.166666666666668,317.5C39.25,317.5,39.25,377,52.333333333333336,377C65.41666666666667,377,65.41666666666667,342,78.5,342C91.58333333333334,342,91.58333333333334,352.5,104.66666666666667,352.5C117.75,352.5,117.75,377,130.83333333333331,377C143.91666666666666,377,143.91666666666666,342,157,342C170.08333333333331,342,170.08333333333331,310.5,183.16666666666666,310.5C196.25,310.5,196.25,303.5,209.33333333333334,303.5C222.41666666666669,303.5,222.41666666666669,352.5,235.5,352.5C248.58333333333331,352.5,248.58333333333331,310.5,261.66666666666663,310.5C274.75,310.5,274.75,317.5,287.8333333333333,317.5C300.91666666666663,317.5,300.91666666666663,303.5,314,303.5C327.08333333333337,303.5,327.08333333333337,314,340.1666666666667,314C353.25,314,353.25,443.5,366.3333333333333,443.5C379.41666666666663,443.5,379.41666666666663,328,392.5,328C405.58333333333337,328,405.58333333333337,307,418.6666666666667,307C431.75,307,431.75,303.5,444.8333333333333,303.5C457.91666666666663,303.5,457.91666666666663,335,471,335C484.0833333333333,335,484.0833333333333,317.5,497.16666666666663,317.5C510.24999999999994,317.5,510.24999999999994,401.5,523.3333333333333,401.5C536.4166666666666,401.5,536.4166666666666,356,549.5,356C562.5833333333333,356,562.5833333333333,366.5,575.6666666666666,366.5C588.75,366.5,588.75,311.5,601.8333333333334,311.5C614.9166666666667,311.5,614.9166666666667,310.5,628,310.5C641.0833333333334,310.5,641.0833333333334,374.5,654.1666666666667,374.5C667.25,374.5,667.25,198.49999999999997,680.3333333333334,198.49999999999997C693.4166666666667,198.49999999999997,693.4166666666667,346.5,706.5,346.5C719.5833333333333,346.5,719.5833333333333,546,732.6666666666666,546C745.75,546,745.75,198.49999999999997,758.8333333333334,198.49999999999997C771.9166666666667,198.49999999999997,771.9166666666667,304.5,785,304.5L785,304.5C771.9166666666667,304.5,771.9166666666667,359.5,758.8333333333334,359.5C745.75,359.5,745.75,546,732.6666666666666,546C719.5833333333333,546,719.5833333333333,346.5,706.5,346.5C693.4166666666667,346.5,693.4166666666667,359.5,680.3333333333334,359.5C667.25,359.5,667.25,374.5,654.1666666666667,374.5C641.0833333333334,374.5,641.0833333333334,310.5,628,310.5C614.9166666666667,310.5,614.9166666666667,311.5,601.8333333333334,311.5C588.75,311.5,588.75,366.5,575.6666666666666,366.5C562.5833333333333,366.5,562.5833333333333,356,549.5,356C536.4166666666666,356,536.4166666666666,401.5,523.3333333333333,401.5C510.24999999999994,401.5,510.24999999999994,317.5,497.16666666666663,317.5C484.0833333333333,317.5,484.0833333333333,335,471,335C457.91666666666663,335,457.91666666666663,303.5,444.8333333333333,303.5C431.75,303.5,431.75,307,418.6666666666667,307C405.58333333333337,307,405.58333333333337,328,392.5,328C379.41666666666663,328,379.41666666666663,443.5,366.3333333333333,443.5C353.25,443.5,353.25,314,340.1666666666667,314C327.08333333333337,314,327.08333333333337,303.5,314,303.5C300.91666666666663,303.5,300.91666666666663,317.5,287.8333333333333,317.5C274.75,317.5,274.75,310.5,261.66666666666663,310.5C248.58333333333331,310.5,248.58333333333331,352.5,235.5,352.5C222.41666666666669,352.5,222.41666666666669,303.5,209.33333333333334,303.5C196.25,303.5,196.25,310.5,183.16666666666666,310.5C170.08333333333331,310.5,170.08333333333331,342,157,342C143.91666666666666,342,143.91666666666666,377,130.83333333333331,377C117.75,377,117.75,352.5,104.66666666666667,352.5C91.58333333333334,352.5,91.58333333333334,342,78.5,342C65.41666666666667,342,65.41666666666667,377,52.333333333333336,377C39.25,377,39.25,317.5,26.166666666666668,317.5C13.083333333333334,317.5,13.083333333333334,331.5,0,331.5Z"><title>23</title></path><path fill="rgb(212, 229, 244)" d="M0,331.5C13.083333333333334,331.5,13.083333333333334,317.5,26.166666666666668,317.5C39.25,317.5,39.25,377,52.333333333333336,377C65.41666666666667,377,65.41666666666667,342,78.5,342C91.58333333333334,342,91.58333333333334,352.5,104.66666666666667,352.5C117.75,352.5,117.75,377,130.83333333333331,377C143.91666666666666,377,143.91666666666666,342,157,342C170.08333333333331,342,170.08333333333331,310.5,183.16666666666666,310.5C196.25,310.5,196.25,303.5,209.33333333333334,303.5C222.41666666666669,303.5,222.41666666666669,352.5,235.5,352.5C248.58333333333331,352.5,248.58333333333331,310.5,261.66666666666663,310.5C274.75,310.5,274.75,317.5,287.8333333333333,317.5C300.91666666666663,317.5,300.91666666666663,303.5,314,303.5C327.08333333333337,303.5,327.08333333333337,314,340.1666666666667,314C353.25,314,353.25,443.5,366.3333333333333,443.5C379.41666666666663,443.5,379.41666666666663,328,392.5,328C405.58333333333337,328,405.58333333333337,307,418.6666666666667,307C431.75,307,431.75,303.5,444.8333333333333,303.5C457.91666666666663,303.5,457.91666666666663,335,471,335C484.0833333333333,335,484.0833333333333,317.5,497.16666666666663,317.5C510.24999999999994,317.5,510.24999999999994,401.5,523.3333333333333,401.5C536.4166666666666,401.5,536.4166666666666,356,549.5,356C562.5833333333333,356,562.5833333333333,366.5,575.6666666666666,366.5C588.75,366.5,588.75,311.5,601.8333333333334,311.5C614.9166666666667,311.5,614.9166666666667,310.5,628,310.5C641.0833333333334,310.5,641.0833333333334,373.5,654.1666666666667,373.5C667.25,373.5,667.25,360.5,680.3333333333334,360.5C693.4166666666667,360.5,693.4166666666667,212.5,706.5,212.5C719.5833333333333,212.5,719.5833333333333,545,732.6666666666666,545C745.75,545,745.75,359.5,758.8333333333334,359.5C771.9166666666667,359.5,771.9166666666667,304.5,785,304.5L785,304.5C771.9166666666667,304.5,771.9166666666667,359.5,758.8333333333334,359.5C745.75,359.5,745.75,545,732.6666666666666,545C719.5833333333333,545,719.5833333333333,345.5,706.5,345.5C693.4166666666667,345.5,693.4166666666667,360.5,680.3333333333334,360.5C667.25,360.5,667.25,373.5,654.1666666666667,373.5C641.0833333333334,373.5,641.0833333333334,310.5,628,310.5C614.9166666666667,310.5,614.9166666666667,311.5,601.8333333333334,311.5C588.75,311.5,588.75,366.5,575.6666666666666,366.5C562.5833333333333,366.5,562.5833333333333,356,549.5,356C536.4166666666666,356,536.4166666666666,401.5,523.3333333333333,401.5C510.24999999999994,401.5,510.24999999999994,317.5,497.16666666666663,317.5C484.0833333333333,317.5,484.0833333333333,335,471,335C457.91666666666663,335,457.91666666666663,303.5,444.8333333333333,303.5C431.75,303.5,431.75,307,418.6666666666667,307C405.58333333333337,307,405.58333333333337,328,392.5,328C379.41666666666663,328,379.41666666666663,443.5,366.3333333333333,443.5C353.25,443.5,353.25,314,340.1666666666667,314C327.08333333333337,314,327.08333333333337,303.5,314,303.5C300.91666666666663,303.5,300.91666666666663,317.5,287.8333333333333,317.5C274.75,317.5,274.75,310.5,261.66666666666663,310.5C248.58333333333331,310.5,248.58333333333331,352.5,235.5,352.5C222.41666666666669,352.5,222.41666666666669,303.5,209.33333333333334,303.5C196.25,303.5,196.25,310.5,183.16666666666666,310.5C170.08333333333331,310.5,170.08333333333331,342,157,342C143.91666666666666,342,143.91666666666666,377,130.83333333333331,377C117.75,377,117.75,352.5,104.66666666666667,352.5C91.58333333333334,352.5,91.58333333333334,342,78.5,342C65.41666666666667,342,65.41666666666667,377,52.333333333333336,377C39.25,377,39.25,317.5,26.166666666666668,317.5C13.083333333333334,317.5,13.083333333333334,331.5,0,331.5Z"><title>19</title></path><path fill="rgb(8, 48, 107)" d="M0,331.5C13.083333333333334,331.5,13.083333333333334,317.5,26.166666666666668,317.5C39.25,317.5,39.25,377,52.333333333333336,377C65.41666666666667,377,65.41666666666667,342,78.5,342C91.58333333333334,342,91.58333333333334,352.5,104.66666666666667,352.5C117.75,352.5,117.75,377,130.83333333333331,377C143.91666666666666,377,143.91666666666666,342,157,342C170.08333333333331,342,170.08333333333331,310.5,183.16666666666666,310.5C196.25,310.5,196.25,303.5,209.33333333333334,303.5C222.41666666666669,303.5,222.41666666666669,352.5,235.5,352.5C248.58333333333331,352.5,248.58333333333331,310.5,261.66666666666663,310.5C274.75,310.5,274.75,317.5,287.8333333333333,317.5C300.91666666666663,317.5,300.91666666666663,303.5,314,303.5C327.08333333333337,303.5,327.08333333333337,314,340.1666666666667,314C353.25,314,353.25,443.5,366.3333333333333,443.5C379.41666666666663,443.5,379.41666666666663,328,392.5,328C405.58333333333337,328,405.58333333333337,307,418.6666666666667,307C431.75,307,431.75,303.5,444.8333333333333,303.5C457.91666666666663,303.5,457.91666666666663,335,471,335C484.0833333333333,335,484.0833333333333,317.5,497.16666666666663,317.5C510.24999999999994,317.5,510.24999999999994,401.5,523.3333333333333,401.5C536.4166666666666,401.5,536.4166666666666,356,549.5,356C562.5833333333333,356,562.5833333333333,366.5,575.6666666666666,366.5C588.75,366.5,588.75,311.5,601.8333333333334,311.5C614.9166666666667,311.5,614.9166666666667,310.5,628,310.5C641.0833333333334,310.5,641.0833333333334,373.5,654.1666666666667,373.5C667.25,373.5,667.25,359.5,680.3333333333334,359.5C693.4166666666667,359.5,693.4166666666667,346.5,706.5,346.5C719.5833333333333,346.5,719.5833333333333,13.000000000000012,732.6666666666666,13.000000000000012C745.75,13.000000000000012,745.75,359.5,758.8333333333334,359.5C771.9166666666667,359.5,771.9166666666667,304.5,785,304.5L785,304.5C771.9166666666667,304.5,771.9166666666667,359.5,758.8333333333334,359.5C745.75,359.5,745.75,545,732.6666666666666,545C719.5833333333333,545,719.5833333333333,346.5,706.5,346.5C693.4166666666667,346.5,693.4166666666667,359.5,680.3333333333334,359.5C667.25,359.5,667.25,373.5,654.1666666666667,373.5C641.0833333333334,373.5,641.0833333333334,310.5,628,310.5C614.9166666666667,310.5,614.9166666666667,311.5,601.8333333333334,311.5C588.75,311.5,588.75,366.5,575.6666666666666,366.5C562.5833333333333,366.5,562.5833333333333,356,549.5,356C536.4166666666666,356,536.4166666666666,401.5,523.3333333333333,401.5C510.24999999999994,401.5,510.24999999999994,317.5,497.16666666666663,317.5C484.0833333333333,317.5,484.0833333333333,335,471,335C457.91666666666663,335,457.91666666666663,303.5,444.8333333333333,303.5C431.75,303.5,431.75,307,418.6666666666667,307C405.58333333333337,307,405.58333333333337,328,392.5,328C379.41666666666663,328,379.41666666666663,443.5,366.3333333333333,443.5C353.25,443.5,353.25,314,340.1666666666667,314C327.08333333333337,314,327.08333333333337,303.5,314,303.5C300.91666666666663,303.5,300.91666666666663,317.5,287.8333333333333,317.5C274.75,317.5,274.75,310.5,261.66666666666663,310.5C248.58333333333331,310.5,248.58333333333331,352.5,235.5,352.5C222.41666666666669,352.5,222.41666666666669,303.5,209.33333333333334,303.5C196.25,303.5,196.25,310.5,183.16666666666666,310.5C170.08333333333331,310.5,170.08333333333331,342,157,342C143.91666666666666,342,143.91666666666666,377,130.83333333333331,377C117.75,377,117.75,352.5,104.66666666666667,352.5C91.58333333333334,352.5,91.58333333333334,342,78.5,342C65.41666666666667,342,65.41666666666667,377,52.333333333333336,377C39.25,377,39.25,317.5,26.166666666666668,317.5C13.083333333333334,317.5,13.083333333333334,331.5,0,331.5Z"><title>76</title></path></g><g id="xAxis" transform="translate(0,560)" fill="none" font-size="10" font-family="sans-serif" text-anchor="middle"><path class="domain" stroke="currentColor" d="M0.5,0.5H785.5"/><g class="tick" opacity="1" transform="translate(26.666666666666668,0)"><line stroke="currentColor" y2="6"/><text fill="currentColor" y="9" dy="0.71em">2</text></g><g class="tick" opacity="1" transform="translate(79,0)"><line stroke="currentColor" y2="6"/><text fill="currentColor" y="9" dy="0.71em">4</text></g><g class="tick" opacity="1" transform="translate(131.33333333333331,0)"><line stroke="currentColor" y2="6"/><text fill="currentColor" y="9" dy="0.71em">6</text></g><g class="tick" opacity="1" transform="translate(183.66666666666666,0)"><line stroke="currentColor" y2="6"/><text fill="currentColor" y="9" dy="0.71em">8</text></g><g class="tick" opacity="1" transform="translate(236,0)"><line stroke="currentColor" y2="6"/><text fill="currentColor" y="9" dy="0.71em">10</text></g><g class="tick" opacity="1" transform="translate(288.3333333333333,0)"><line stroke="currentColor" y2="6"/><text fill="currentColor" y="9" dy="0.71em">12</text></g><g class="tick" opacity="1" transform="translate(340.6666666666667,0)"><line stroke="currentColor" y2="6"/><text fill="currentColor" y="9" dy="0.71em">14</text></g><g class="tick" opacity="1" transform="translate(393,0)"><line stroke="currentColor" y2="6"/><text fill="currentColor" y="9" dy="0.71em">16</text></g><g class="tick" opacity="1" transform="translate(445.3333333333333,0)"><line stroke="currentColor" y2="6"/><text fill="currentColor" y="9" dy="0.71em">18</text></g><g class="tick" opacity="1" transform="translate(497.66666666666663,0)"><line stroke="currentColor" y2="6"/><text fill="currentColor" y="9" dy="0.71em">20</text></g><g class="tick" opacity="1" transform="translate(550,0)"><line stroke="currentColor" y2="6"/><text fill="currentColor" y="9" dy="0.71em">22</text></g><g class="tick" opacity="1" transform="translate(602.3333333333334,0)"><line stroke="currentColor" y2="6"/><text fill="currentColor" y="9" dy="0.71em">24</text></g><g class="tick" opacity="1" transform="translate(654.6666666666667,0)"><line stroke="currentColor" y2="6"/><text fill="currentColor" y="9" dy="0.71em">26</text></g><g class="tick" opacity="1" transform="translate(707,0)"><line stroke="currentColor" y2="6"/><text fill="currentColor" y="9" dy="0.71em">28</text></g><g class="tick" opacity="1" transform="translate(759.3333333333334,0)"><line stroke="currentColor" y2="6"/><text fill="currentColor" y="9" dy="0.71em">30</text></g></g><text y="556" x="785" text-anchor="end" style="font-family: Arial, sans-serif; font-size: 12px; fill: rgb(123, 123, 123); font-weight: bold;">day</text><text x="4" text-anchor="start" dominant-baseline="hanging" style="font-family: Arial, sans-serif; font-size: 12px; fill: rgb(123, 123, 123); font-weight: bold;">Count</text><g id="labels"><text x="0" y="279" text-anchor="start" alignment-baseline="middle" style="font-family: Arial, sans-serif; font-size: 10px; fill: black; font-weight: bold;">15</text><text x="26.166666666666668" y="279" text-anchor="middle" alignment-baseline="middle" style="font-family: Arial, sans-serif; font-size: 10px; fill: black; font-weight: bold;">11</text><text x="52.333333333333336" y="279" text-anchor="middle" alignment-baseline="middle" style="font-family: Arial, sans-serif; font-size: 10px; fill: black; font-weight: bold;">28</text><text x="78.5" y="279" text-anchor="middle" alignment-baseline="middle" style="font-family: Arial, sans-serif; font-size: 10px; fill: black; font-weight: bold;">18</text><text x="104.66666666666667" y="279" text-anchor="middle" alignment-baseline="middle" style="font-family: Arial, sans-serif; font-size: 10px; fill: black; font-weight: bold;">21</text><text x="183.16666666666666" y="279" text-anchor="middle" alignment-baseline="middle" style="font-family: Arial, sans-serif; font-size: 10px; fill: black; font-weight: bold;">9</text><text x="209.33333333333334" y="279" text-anchor="middle" alignment-baseline="middle" style="font-family: Arial, sans-serif; font-size: 10px; fill: black; font-weight: bold;">7</text><text x="340.1666666666667" y="279" text-anchor="middle" alignment-baseline="middle" style="font-family: Arial, sans-serif; font-size: 10px; fill: black; font-weight: bold;">10</text><text x="366.3333333333333" y="279" text-anchor="middle" alignment-baseline="middle" style="font-family: Arial, sans-serif; font-size: 10px; fill: black; font-weight: bold;">47</text><text x="392.5" y="279" text-anchor="middle" alignment-baseline="middle" style="font-family: Arial, sans-serif; font-size: 10px; fill: black; font-weight: bold;">14</text><text x="418.6666666666667" y="279" text-anchor="middle" alignment-baseline="middle" style="font-family: Arial, sans-serif; font-size: 10px; fill: black; font-weight: bold;">8</text><text x="471" y="279" text-anchor="middle" alignment-baseline="middle" style="font-family: Arial, sans-serif; font-size: 10px; fill: black; font-weight: bold;">16</text><text x="523.3333333333333" y="279" text-anchor="middle" alignment-baseline="middle" style="font-family: Arial, sans-serif; font-size: 10px; fill: black; font-weight: bold;">35</text><text x="549.5" y="279" text-anchor="middle" alignment-baseline="middle" style="font-family: Arial, sans-serif; font-size: 10px; fill: black; font-weight: bold;">22</text><text x="575.6666666666666" y="279" text-anchor="middle" alignment-baseline="middle" style="font-family: Arial, sans-serif; font-size: 10px; fill: black; font-weight: bold;">25</text><text x="654.1666666666667" y="279" text-anchor="middle" alignment-baseline="middle" style="font-family: Arial, sans-serif; font-size: 10px; fill: black; font-weight: bold;">27</text><text x="680.3333333333334" y="279" text-anchor="middle" alignment-baseline="middle" style="font-family: Arial, sans-serif; font-size: 10px; fill: black; font-weight: bold;">23</text><text x="706.5" y="279" text-anchor="middle" alignment-baseline="middle" style="font-family: Arial, sans-serif; font-size: 10px; fill: black; font-weight: bold;">19</text><text x="732.6666666666666" y="279" text-anchor="middle" alignment-baseline="middle" style="font-family: Arial, sans-serif; font-size: 10px; fill: black; font-weight: bold;">76</text></g></g><text x="4" y="4" style="font-family: Arial, sans-serif; font-size: 12px; fill: black; font-weight: bold; dominant-baseline: hanging;"/></g></g></svg>