<svg xmlns="http://www.w3.org/2000/svg" width="805" height="600"><rect width="805" height="600" x="0" y="0" fill="#FFFFFF" id="background"/><g id="viz"><g transform="translate(0,0)"><g transform="translate(10,20)"><g><path fill="rgb(136, 190, 220)" d="M0,176.39999999999998C11.376811594202902,157.59545995712756,22.753623188405804,138.7909199142551,34.130434782608695,176.39999999999998C45.50724637681159,214.00908008574484,56.884057971014485,308.03178030010685,68.26086956521739,336C79.6376811594203,363.96821969989315,91.01449275362319,325.8819588853176,102.39130434782608,305.19999999999993C113.76811594202897,284.51804111468226,125.1449275362319,281.2403841586224,136.52173913043478,294C147.89855072463766,306.7596158413776,159.27536231884056,335.55650448019253,170.65217391304347,336C182.02898550724638,336.44349551980747,193.40579710144922,308.5335979206077,204.78260869565216,296.8C216.1594202898551,285.06640207939233,227.53623188405803,289.5091038373769,238.91304347826087,288.40000000000003C250.28985507246372,287.29089616262314,261.66666666666663,280.6299867298847,273.04347826086956,282.8C284.4202898550725,284.9700132701153,295.7971014492753,295.97094924308425,307.17391304347825,296.8C318.5507246376812,297.6290507569158,329.92753623188406,288.2862162977783,341.30434782608694,288.40000000000003C352.6811594202898,288.51378370222176,364.0579710144927,298.0841855658028,375.4347826086957,310.79999999999995C386.8115942028987,323.5158144341971,398.1884057971015,339.3770414390106,409.5652173913043,350C420.94202898550714,360.6229585609894,432.31884057971007,366.00764867815474,443.695652173913,364C455.07246376811594,361.99235132184526,466.44927536231876,352.5923638483705,477.82608695652175,350C489.20289855072474,347.4076361516295,500.5797101449276,351.6228959283629,511.95652173913044,361.2C523.3333333333333,370.7771040716371,534.7101449275361,385.7160524381779,546.0869565217391,375.19999999999993C557.4637681159421,364.683947561822,568.8405797101449,328.71289431892535,580.2173913043478,322C591.5942028985506,315.28710568107465,602.9710144927536,337.8323702861207,614.3478260869565,338.8C625.7246376811594,339.76762971387933,637.1014492753623,319.15762453659187,648.4782608695652,322C659.8550724637682,324.84237546340813,671.231884057971,351.13713156751146,682.6086956521739,394.80000000000007C693.9855072463768,438.4628684324887,705.3623188405797,499.4938491933623,716.7391304347826,518C728.1159420289855,536.5061508066377,739.4927536231884,512.4874716590393,750.8695652173914,484.4C762.2463768115944,456.3125283409606,773.6231884057972,424.1562641704803,785,392L785,392C773.6231884057972,424.1562641703966,762.2463768115941,456.31252834079316,750.8695652173914,484.4C739.4927536231886,512.4874716592068,728.1159420289856,536.5061508072239,716.7391304347826,518C705.3623188405796,499.4938491927761,693.9855072463768,438.4628684303109,682.6086956521739,394.80000000000007C671.231884057971,351.13713156968925,659.8550724637681,324.84237547153276,648.4782608695652,322C637.1014492753624,319.15762452846724,625.7246376811595,339.7676296835582,614.3478260869565,338.8C602.9710144927535,337.8323703164418,591.5942028985506,315.2871057942342,580.2173913043478,322C568.8405797101449,328.7128942057658,557.463768115942,364.68394713950516,546.0869565217391,375.19999999999993C534.7101449275362,385.7160528604947,523.3333333333333,370.77710564774486,511.95652173913044,361.2C500.57971014492756,351.6228943522551,489.2028985507247,347.407630269515,477.82608695652175,350C466.4492753623188,352.592369730485,455.072463768116,361.9923732741949,443.695652173913,364C432.31884057971,366.0076267258051,420.9420289855072,360.6228766337054,409.5652173913043,350C398.18840579710144,339.3771233662946,386.81159420289856,323.5161201909835,375.4347826086957,310.79999999999995C364.0579710144928,298.0838798090164,352.6811594202899,288.51264260236013,341.30434782608694,288.40000000000003C329.927536231884,288.28735739763994,318.5507246376811,297.6333093995759,307.17391304347825,296.8C295.7971014492754,295.9666906004241,284.4202898550725,284.9541197993362,273.04347826086956,282.8C261.66666666666663,280.64588020066384,250.28985507246378,287.35021140307947,238.91304347826087,288.40000000000003C227.53623188405797,289.4497885969206,216.15942028985506,284.8450345883458,204.78260869565216,296.8C193.40579710144925,308.7549654116542,182.02898550724635,337.2696502435372,170.65217391304347,336C159.2753623188406,334.7303497564628,147.8985507246377,303.67636443750524,136.52173913043478,294C125.14492753623186,284.32363556249476,113.76811594202896,296.0248920064418,102.39130434782608,305.19999999999993C91.0144927536232,314.37510799355806,79.6376811594203,321.0240675367272,68.26086956521739,336C56.884057971014485,350.9759324632728,45.507246376811594,374.2788378466494,34.130434782608695,383.6C22.7536231884058,392.9211621533506,11.3768115942029,388.2605810766753,0,383.6Z"><title>37</title></path><path fill="rgb(201, 222, 240)" d="M0,383.6C11.376811594202902,404.03366463952074,22.753623188405804,424.46732927904134,34.130434782608695,383.6C45.50724637681159,342.7326707209587,56.884057971014485,240.56434752335562,68.26086956521739,224C79.6376811594203,207.43565247664438,91.01449275362319,276.47528062753634,102.39130434782608,305.19999999999993C113.76811594202897,333.9247193724635,125.1449275362319,322.33452996649885,136.52173913043478,294C147.89855072463766,265.66547003350115,159.27536231884056,220.5865995064682,170.65217391304347,224C182.02898550724638,227.4134004935318,193.40579710144922,279.3190720076285,204.78260869565216,296.8C216.1594202898551,314.2809279923715,227.53623188405803,297.3371124630179,238.91304347826087,288.40000000000003C250.28985507246372,279.4628875369822,261.66666666666663,278.5324781403003,273.04347826086956,282.8C284.4202898550725,287.0675218596997,295.7971014492753,296.5329749757808,307.17391304347825,296.8C318.5507246376812,297.0670250242192,329.92753623188406,288.13562195657676,341.30434782608694,288.40000000000003C352.6811594202898,288.6643780434233,364.0579710144927,298.1245371979124,375.4347826086957,310.79999999999995C386.8115942028987,323.4754628020875,398.1884057971015,339.3662292517736,409.5652173913043,350C420.94202898550714,360.6337707482264,432.31884057971007,366.0105457949933,443.695652173913,364C455.07246376811594,361.9894542050067,466.44927536231876,352.59158756825326,477.82608695652175,350C489.20289855072474,347.40841243174674,500.5797101449276,351.62310393199357,511.95652173913044,361.2C523.3333333333333,370.7768960680064,534.7101449275361,385.71599670377253,546.0869565217391,375.19999999999993C557.4637681159421,364.68400329622733,568.8405797101449,328.7129092529161,580.2173913043478,322C591.5942028985506,315.2870907470839,602.9710144927536,337.8323662845628,614.3478260869565,338.8C625.7246376811594,339.7676337154372,637.1014492753623,319.1576256088326,648.4782608695652,322C659.8550724637682,324.8423743911674,671.231884057971,351.13713128010676,682.6086956521739,394.80000000000007C693.9855072463768,438.4628687198934,705.3623188405797,499.4938492707405,716.7391304347826,518C728.1159420289855,536.5061507292595,739.4927536231884,512.4874716369312,750.8695652173914,484.4C762.2463768115944,456.31252836306874,773.6231884057972,424.15626418153437,785,392L785,392C773.6231884057972,424.1562641703966,762.2463768115941,456.31252834079316,750.8695652173914,484.4C739.4927536231886,512.4874716592068,728.1159420289856,536.5061508072239,716.7391304347826,518C705.3623188405796,499.4938491927761,693.9855072463768,438.4628684303109,682.6086956521739,394.80000000000007C671.231884057971,351.13713156968925,659.8550724637681,324.84237547153276,648.4782608695652,322C637.1014492753624,319.15762452846724,625.7246376811595,339.7676296835582,614.3478260869565,338.8C602.9710144927535,337.8323703164418,591.5942028985506,315.2871057942342,580.2173913043478,322C568.8405797101449,328.7128942057658,557.463768115942,364.68394713950516,546.0869565217391,375.19999999999993C534.7101449275362,385.7160528604947,523.3333333333333,370.77710564774486,511.95652173913044,361.2C500.57971014492756,351.6228943522551,489.2028985507247,347.407630269515,477.82608695652175,350C466.4492753623188,352.592369730485,455.072463768116,361.9923732741949,443.695652173913,364C432.31884057971,366.0076267258051,420.9420289855072,360.6228766337054,409.5652173913043,350C398.18840579710144,339.3771233662946,386.81159420289856,323.5161201909835,375.4347826086957,310.79999999999995C364.0579710144928,298.0838798090164,352.6811594202899,288.51264260236013,341.30434782608694,288.40000000000003C329.927536231884,288.28735739763994,318.5507246376811,297.6333093995759,307.17391304347825,296.8C295.7971014492754,295.9666906004241,284.4202898550725,284.9541197993362,273.04347826086956,282.8C261.66666666666663,280.64588020066384,250.28985507246378,287.35021140307947,238.91304347826087,288.40000000000003C227.53623188405797,289.4497885969206,216.15942028985506,284.8450345883458,204.78260869565216,296.8C193.40579710144925,308.7549654116542,182.02898550724635,337.2696502435372,170.65217391304347,336C159.2753623188406,334.7303497564628,147.8985507246377,303.67636443750524,136.52173913043478,294C125.14492753623186,284.32363556249476,113.76811594202896,296.0248920064418,102.39130434782608,305.19999999999993C91.0144927536232,314.37510799355806,79.6376811594203,321.0240675367272,68.26086956521739,336C56.884057971014485,350.9759324632728,45.507246376811594,374.2788378466494,34.130434782608695,383.6C22.7536231884058,392.9211621533506,11.3768115942029,388.2605810766753,0,383.6Z"><title>20</title></path><path fill="rgb(228, 239, 249)" d="M0,383.6C11.376811594202902,386.3214021208179,22.753623188405804,389.04280424163557,34.130434782608695,383.6C45.50724637681159,378.1571957583645,56.884057971014485,364.55018515427554,68.26086956521739,336C79.6376811594203,307.44981484572446,91.01449275362319,263.95645514126227,102.39130434782608,254.79999999999998C113.76811594202897,245.6435448587377,125.1449275362319,270.82399428067544,136.52173913043478,294C147.89855072463766,317.17600571932456,159.27536231884056,338.34756773603607,170.65217391304347,336C182.02898550724638,333.65243226396393,193.40579710144922,307.78573477518023,204.78260869565216,296.8C216.1594202898551,285.8142652248198,227.53623188405803,289.7094931632432,238.91304347826087,288.40000000000003C250.28985507246372,287.09050683675684,261.66666666666663,280.57629257184703,273.04347826086956,282.8C284.4202898550725,285.023707428153,295.7971014492753,295.98533654936875,307.17391304347825,296.8C318.5507246376812,297.61466345063127,329.92753623188406,288.2823612306781,341.30434782608694,288.40000000000003C352.6811594202898,288.517638769322,364.0579710144927,298.08521852791904,375.4347826086957,310.79999999999995C386.8115942028987,323.51478147208087,398.1884057971015,339.37676465764577,409.5652173913043,350C420.94202898550714,360.62323534235423,432.31884057971007,366.0077228414979,443.695652173913,364C455.07246376811594,361.9922771585021,466.44927536231876,352.59234397636266,477.82608695652175,350C489.20289855072474,347.40765602363734,500.5797101449276,351.6229012530514,511.95652173913044,361.2C523.3333333333333,370.7770987469486,534.7101449275361,385.71605101143183,546.0869565217391,375.19999999999993C557.4637681159421,364.68394898856803,568.8405797101449,328.7128947012209,580.2173913043478,322C591.5942028985506,315.2871052987791,602.9710144927536,337.83237018368476,614.3478260869565,338.8C625.7246376811594,339.76762981631526,637.1014492753623,319.15762456404025,648.4782608695652,322C659.8550724637682,324.84237543595975,671.231884057971,351.1371315601542,682.6086956521739,394.80000000000007C693.9855072463768,438.4628684398459,705.3623188405797,499.49384919534293,716.7391304347826,518C728.1159420289855,536.5061508046571,739.4927536231884,512.4874716584734,750.8695652173914,484.4C762.2463768115944,456.31252834152656,773.6231884057972,424.1562641707633,785,392L785,392C773.6231884057972,424.1562641703966,762.2463768115941,456.31252834079316,750.8695652173914,484.4C739.4927536231886,512.4874716592068,728.1159420289856,536.5061508072239,716.7391304347826,518C705.3623188405796,499.4938491927761,693.9855072463768,438.4628684303109,682.6086956521739,394.80000000000007C671.231884057971,351.13713156968925,659.8550724637681,324.84237547153276,648.4782608695652,322C637.1014492753624,319.15762452846724,625.7246376811595,339.7676296835582,614.3478260869565,338.8C602.9710144927535,337.8323703164418,591.5942028985506,315.2871057942342,580.2173913043478,322C568.8405797101449,328.7128942057658,557.463768115942,364.68394713950516,546.0869565217391,375.19999999999993C534.7101449275362,385.7160528604947,523.3333333333333,370.77710564774486,511.95652173913044,361.2C500.57971014492756,351.6228943522551,489.2028985507247,347.407630269515,477.82608695652175,350C466.4492753623188,352.592369730485,455.072463768116,361.9923732741949,443.695652173913,364C432.31884057971,366.0076267258051,420.9420289855072,360.6228766337054,409.5652173913043,350C398.18840579710144,339.3771233662946,386.81159420289856,323.5161201909835,375.4347826086957,310.79999999999995C364.0579710144928,298.0838798090164,352.6811594202899,288.51264260236013,341.30434782608694,288.40000000000003C329.927536231884,288.28735739763994,318.5507246376811,297.6333093995759,307.17391304347825,296.8C295.7971014492754,295.9666906004241,284.4202898550725,284.9541197993362,273.04347826086956,282.8C261.66666666666663,280.64588020066384,250.28985507246378,287.35021140307947,238.91304347826087,288.40000000000003C227.53623188405797,289.4497885969206,216.15942028985506,284.8450345883458,204.78260869565216,296.8C193.40579710144925,308.7549654116542,182.02898550724635,337.2696502435372,170.65217391304347,336C159.2753623188406,334.7303497564628,147.8985507246377,303.67636443750524,136.52173913043478,294C125.14492753623186,284.32363556249476,113.76811594202896,296.0248920064418,102.39130434782608,305.19999999999993C91.0144927536232,314.37510799355806,79.6376811594203,321.0240675367272,68.26086956521739,336C56.884057971014485,350.9759324632728,45.507246376811594,374.2788378466494,34.130434782608695,383.6C22.7536231884058,392.9211621533506,11.3768115942029,388.2605810766753,0,383.6Z"><title>9</title></path><path fill="rgb(237, 245, 252)" d="M0,383.6C11.376811594202902,388.5492485406762,22.753623188405804,393.4984970813523,34.130434782608695,383.6C45.50724637681159,373.70150291864775,56.884057971014485,348.9552602152672,68.26086956521739,336C79.6376811594203,323.0447397847328,91.01449275362319,321.88046205757905,102.39130434782608,305.19999999999993C113.76811594202897,288.5195379424208,125.1449275362319,256.32289155441646,136.52173913043478,266C147.89855072463766,275.67710844558354,159.27536231884056,327.2279717247551,170.65217391304347,336C182.02898550724638,344.7720282752449,193.40579710144922,310.76522154656334,204.78260869565216,296.8C216.1594202898551,282.8347784534367,227.53623188405803,288.91114208899194,238.91304347826087,288.40000000000003C250.28985507246372,287.88885791100813,261.66666666666663,280.7902100974692,273.04347826086956,282.8C284.4202898550725,284.80978990253084,295.7971014492753,295.9280175211314,307.17391304347825,296.8C318.5507246376812,297.67198247886864,329.92753623188406,288.2977198180052,341.30434782608694,288.40000000000003C352.6811594202898,288.5022801819949,364.0579710144927,298.08110320684784,375.4347826086957,310.79999999999995C386.8115942028987,323.51889679315207,398.1884057971015,339.3778673546034,409.5652173913043,350C420.94202898550714,360.6221326453966,432.31884057971007,366.00742737473865,443.695652173913,364C455.07246376811594,361.99257262526135,466.44927536231876,352.5924231464421,477.82608695652175,350C489.20289855072474,347.4075768535579,500.5797101449276,351.6228800394925,511.95652173913044,361.2C523.3333333333333,370.7771199605075,534.7101449275361,385.7160566955879,546.0869565217391,375.19999999999993C557.4637681159421,364.68394330441197,568.8405797101449,328.71289317815564,580.2173913043478,322C591.5942028985506,315.28710682184436,602.9710144927536,337.8323705917895,614.3478260869565,338.8C625.7246376811594,339.7676294082105,637.1014492753623,319.1576244546862,648.4782608695652,322C659.8550724637682,324.8423755453138,671.231884057971,351.1371315894656,682.6086956521739,394.80000000000007C693.9855072463768,438.46286841053455,705.3623188405797,499.4938491874516,716.7391304347826,518C728.1159420289855,536.5061508125484,739.4927536231884,512.4874716607281,750.8695652173914,484.4C762.2463768115944,456.3125283392718,773.6231884057972,424.1562641696359,785,392L785,392C773.6231884057972,424.1562641703966,762.2463768115941,456.31252834079316,750.8695652173914,484.4C739.4927536231886,512.4874716592068,728.1159420289856,536.5061508072239,716.7391304347826,518C705.3623188405796,499.4938491927761,693.9855072463768,438.4628684303109,682.6086956521739,394.80000000000007C671.231884057971,351.13713156968925,659.8550724637681,324.84237547153276,648.4782608695652,322C637.1014492753624,319.15762452846724,625.7246376811595,339.7676296835582,614.3478260869565,338.8C602.9710144927535,337.8323703164418,591.5942028985506,315.2871057942342,580.2173913043478,322C568.8405797101449,328.7128942057658,557.463768115942,364.68394713950516,546.0869565217391,375.19999999999993C534.7101449275362,385.7160528604947,523.3333333333333,370.77710564774486,511.95652173913044,361.2C500.57971014492756,351.6228943522551,489.2028985507247,347.407630269515,477.82608695652175,350C466.4492753623188,352.592369730485,455.072463768116,361.9923732741949,443.695652173913,364C432.31884057971,366.0076267258051,420.9420289855072,360.6228766337054,409.5652173913043,350C398.18840579710144,339.3771233662946,386.81159420289856,323.5161201909835,375.4347826086957,310.79999999999995C364.0579710144928,298.0838798090164,352.6811594202899,288.51264260236013,341.30434782608694,288.40000000000003C329.927536231884,288.28735739763994,318.5507246376811,297.6333093995759,307.17391304347825,296.8C295.7971014492754,295.9666906004241,284.4202898550725,284.9541197993362,273.04347826086956,282.8C261.66666666666663,280.64588020066384,250.28985507246378,287.35021140307947,238.91304347826087,288.40000000000003C227.53623188405797,289.4497885969206,216.15942028985506,284.8450345883458,204.78260869565216,296.8C193.40579710144925,308.7549654116542,182.02898550724635,337.2696502435372,170.65217391304347,336C159.2753623188406,334.7303497564628,147.8985507246377,303.67636443750524,136.52173913043478,294C125.14492753623186,284.32363556249476,113.76811594202896,296.0248920064418,102.39130434782608,305.19999999999993C91.0144927536232,314.37510799355806,79.6376811594203,321.0240675367272,68.26086956521739,336C56.884057971014485,350.9759324632728,45.507246376811594,374.2788378466494,34.130434782608695,383.6C22.7536231884058,392.9211621533506,11.3768115942029,388.2605810766753,0,383.6Z"><title>5</title></path><path fill="rgb(235, 243, 251)" d="M0,383.6C11.376811594202902,388.28497309113015,22.753623188405804,392.96994618226023,34.130434782608695,383.6C45.50724637681159,374.2300538177398,56.884057971014485,350.8051883620894,68.26086956521739,336C79.6376811594203,321.1948116379106,91.01449275362319,315.00930036938234,102.39130434782608,305.19999999999993C113.76811594202897,295.3906996306175,125.1449275362319,281.95761016038085,136.52173913043478,294C147.89855072463766,306.04238983961915,159.27536231884056,343.56025898909394,170.65217391304347,336C182.02898550724638,328.43974101090606,193.40579710144922,275.8013538832432,204.78260869565216,263.2C216.1594202898551,250.59864611675675,227.53623188405803,278.03432547793335,238.91304347826087,288.40000000000003C250.28985507246372,298.7656745220667,261.66666666666663,292.06134420502366,273.04347826086956,282.8C284.4202898550725,273.53865579497636,295.7971014492753,261.72029770197224,307.17391304347825,263.2C318.5507246376812,264.67970229802773,329.92753623188406,279.4574649870876,341.30434782608694,288.40000000000003C352.6811594202898,297.3425350129125,364.0579710144927,300.4498423496776,375.4347826086957,310.79999999999995C386.8115942028987,321.1501576503223,398.1884057971015,338.7431656142019,409.5652173913043,350C420.94202898550714,361.2568343857981,432.31884057971007,366.1774951935144,443.695652173913,364C455.07246376811594,361.8225048064856,466.44927536231876,352.5468536117405,477.82608695652175,350C489.20289855072474,347.4531463882595,500.5797101449276,351.63509035952325,511.95652173913044,361.2C523.3333333333333,370.76490964047673,534.7101449275361,385.71278495016645,546.0869565217391,375.19999999999993C557.4637681159421,364.6872150498334,568.8405797101449,328.7137698398106,580.2173913043478,322C591.5942028985506,315.2862301601894,602.9710144927536,337.83213569059114,614.3478260869565,338.8C625.7246376811594,339.7678643094089,637.1014492753623,319.15768739782493,648.4782608695652,322C659.8550724637682,324.84231260217507,671.231884057971,351.1371147181089,682.6086956521739,394.80000000000007C693.9855072463768,438.46288528189126,705.3623188405797,499.49385372973984,716.7391304347826,518C728.1159420289855,536.5061462702602,739.4927536231884,512.4874703629314,750.8695652173914,484.4C762.2463768115944,456.31252963706856,773.6231884057972,424.1562648185343,785,392L785,392C773.6231884057972,424.1562641703966,762.2463768115941,456.31252834079316,750.8695652173914,484.4C739.4927536231886,512.4874716592068,728.1159420289856,536.5061508072239,716.7391304347826,518C705.3623188405796,499.4938491927761,693.9855072463768,438.4628684303109,682.6086956521739,394.80000000000007C671.231884057971,351.13713156968925,659.8550724637681,324.84237547153276,648.4782608695652,322C637.1014492753624,319.15762452846724,625.7246376811595,339.7676296835582,614.3478260869565,338.8C602.9710144927535,337.8323703164418,591.5942028985506,315.2871057942342,580.2173913043478,322C568.8405797101449,328.7128942057658,557.463768115942,364.68394713950516,546.0869565217391,375.19999999999993C534.7101449275362,385.7160528604947,523.3333333333333,370.77710564774486,511.95652173913044,361.2C500.57971014492756,351.6228943522551,489.2028985507247,347.407630269515,477.82608695652175,350C466.4492753623188,352.592369730485,455.072463768116,361.9923732741949,443.695652173913,364C432.31884057971,366.0076267258051,420.9420289855072,360.6228766337054,409.5652173913043,350C398.18840579710144,339.3771233662946,386.81159420289856,323.5161201909835,375.4347826086957,310.79999999999995C364.0579710144928,298.0838798090164,352.6811594202899,288.51264260236013,341.30434782608694,288.40000000000003C329.927536231884,288.28735739763994,318.5507246376811,297.6333093995759,307.17391304347825,296.8C295.7971014492754,295.9666906004241,284.4202898550725,284.9541197993362,273.04347826086956,282.8C261.66666666666663,280.64588020066384,250.28985507246378,287.35021140307947,238.91304347826087,288.40000000000003C227.53623188405797,289.4497885969206,216.15942028985506,284.8450345883458,204.78260869565216,296.8C193.40579710144925,308.7549654116542,182.02898550724635,337.2696502435372,170.65217391304347,336C159.2753623188406,334.7303497564628,147.8985507246377,303.67636443750524,136.52173913043478,294C125.14492753623186,284.32363556249476,113.76811594202896,296.0248920064418,102.39130434782608,305.19999999999993C91.0144927536232,314.37510799355806,79.6376811594203,321.0240675367272,68.26086956521739,336C56.884057971014485,350.9759324632728,45.507246376811594,374.2788378466494,34.130434782608695,383.6C22.7536231884058,392.9211621533506,11.3768115942029,388.2605810766753,0,383.6Z"><title>6</title></path><path fill="rgb(242, 248, 253)" d="M0,383.6C11.376811594202902,388.2573131663879,22.753623188405804,392.91462633277575,34.130434782608695,383.6C45.50724637681159,374.2853736672243,56.884057971014485,350.9988078352851,68.26086956521739,336C79.6376811594203,321.0011921647149,91.01449275362319,314.290142326084,102.39130434782608,305.19999999999993C113.76811594202897,296.1098576739159,125.1449275362319,284.6406228603787,136.52173913043478,294C147.89855072463766,303.3593771396213,159.27536231884056,333.547366232401,170.65217391304347,336C182.02898550724638,338.452633767599,193.40579710144922,313.1699122100175,204.78260869565216,296.8C216.1594202898551,280.4300877899825,227.53623188405803,272.9729849275289,238.91304347826087,271.59999999999997C250.28985507246372,270.22701507247103,261.66666666666663,274.93814807986655,273.04347826086956,282.8C284.4202898550725,290.6618519201335,295.7971014492753,301.6744227530048,307.17391304347825,296.8C318.5507246376812,291.9255772469952,329.92753623188406,271.1641609081141,341.30434782608694,271.59999999999997C352.6811594202898,272.0358390918858,364.0579710144927,293.6689336145384,375.4347826086957,310.79999999999995C386.8115942028987,327.9310663854615,398.1884057971015,340.5601046337322,409.5652173913043,350C420.94202898550714,359.4398953662678,432.31884057971007,365.6906478505331,443.695652173913,364C455.07246376811594,362.3093521494669,466.44927536231876,352.6773039641357,477.82608695652175,350C489.20289855072474,347.3226960358643,500.5797101449276,351.6001362929237,511.95652173913044,361.2C523.3333333333333,370.79986370707627,534.7101449275361,385.72215086416946,546.0869565217391,375.19999999999993C557.4637681159421,364.6778491358304,568.8405797101449,328.711260250398,580.2173913043478,322C591.5942028985506,315.288739749602,602.9710144927536,337.8328081342383,614.3478260869565,338.8C625.7246376811594,339.76719186576173,637.1014492753623,319.15750721264874,648.4782608695652,322C659.8550724637682,324.84249278735126,671.231884057971,351.1371630151664,682.6086956521739,394.80000000000007C693.9855072463768,438.46283698483376,705.3623188405797,499.4938407266859,716.7391304347826,518C728.1159420289855,536.5061592733141,739.4927536231884,512.4874740780897,750.8695652173914,484.4C762.2463768115944,456.3125259219102,773.6231884057972,424.15626296095513,785,392L785,392C773.6231884057972,424.1562641703966,762.2463768115941,456.31252834079316,750.8695652173914,484.4C739.4927536231886,512.4874716592068,728.1159420289856,536.5061508072239,716.7391304347826,518C705.3623188405796,499.4938491927761,693.9855072463768,438.4628684303109,682.6086956521739,394.80000000000007C671.231884057971,351.13713156968925,659.8550724637681,324.84237547153276,648.4782608695652,322C637.1014492753624,319.15762452846724,625.7246376811595,339.7676296835582,614.3478260869565,338.8C602.9710144927535,337.8323703164418,591.5942028985506,315.2871057942342,580.2173913043478,322C568.8405797101449,328.7128942057658,557.463768115942,364.68394713950516,546.0869565217391,375.19999999999993C534.7101449275362,385.7160528604947,523.3333333333333,370.77710564774486,511.95652173913044,361.2C500.57971014492756,351.6228943522551,489.2028985507247,347.407630269515,477.82608695652175,350C466.4492753623188,352.592369730485,455.072463768116,361.9923732741949,443.695652173913,364C432.31884057971,366.0076267258051,420.9420289855072,360.6228766337054,409.5652173913043,350C398.18840579710144,339.3771233662946,386.81159420289856,323.5161201909835,375.4347826086957,310.79999999999995C364.0579710144928,298.0838798090164,352.6811594202899,288.51264260236013,341.30434782608694,288.40000000000003C329.927536231884,288.28735739763994,318.5507246376811,297.6333093995759,307.17391304347825,296.8C295.7971014492754,295.9666906004241,284.4202898550725,284.9541197993362,273.04347826086956,282.8C261.66666666666663,280.64588020066384,250.28985507246378,287.35021140307947,238.91304347826087,288.40000000000003C227.53623188405797,289.4497885969206,216.15942028985506,284.8450345883458,204.78260869565216,296.8C193.40579710144925,308.7549654116542,182.02898550724635,337.2696502435372,170.65217391304347,336C159.2753623188406,334.7303497564628,147.8985507246377,303.67636443750524,136.52173913043478,294C125.14492753623186,284.32363556249476,113.76811594202896,296.0248920064418,102.39130434782608,305.19999999999993C91.0144927536232,314.37510799355806,79.6376811594203,321.0240675367272,68.26086956521739,336C56.884057971014485,350.9759324632728,45.507246376811594,374.2788378466494,34.130434782608695,383.6C22.7536231884058,392.9211621533506,11.3768115942029,388.2605810766753,0,383.6Z"><title>3</title></path><path fill="rgb(247, 251, 255)" d="M0,383.6C11.376811594202902,388.2608786799067,22.753623188405804,392.9217573598133,34.130434782608695,383.6C45.50724637681159,374.27824264018676,56.884057971014485,350.9738492406535,68.26086956521739,336C79.6376811594203,321.0261507593465,91.01449275362319,314.3828456775726,102.39130434782608,305.19999999999993C113.76811594202897,296.01715432242725,125.1449275362319,284.2947680490556,136.52173913043478,294C147.89855072463766,303.7052319509444,159.27536231884056,334.8380821262046,170.65217391304347,336C182.02898550724638,337.1619178737954,193.40579710144922,308.3529034461261,204.78260869565216,296.8C216.1594202898551,285.2470965538739,227.53623188405803,290.9503040892911,238.91304347826087,288.40000000000003C250.28985507246372,285.849695910709,261.66666666666663,275.0458801967099,273.04347826086956,277.2C284.4202898550725,279.3541198032901,295.7971014492753,294.4661751238692,307.17391304347825,296.8C318.5507246376812,299.1338248761308,329.92753623188406,288.6894193078131,341.30434782608694,288.40000000000003C352.6811594202898,288.11058069218694,364.0579710144927,297.97614764487815,375.4347826086957,310.79999999999995C386.8115942028987,323.62385235512176,398.1884057971015,339.40599011267426,409.5652173913043,350C420.94202898550714,360.59400988732574,432.31884057971007,365.9998919044246,443.695652173913,364C455.07246376811594,362.0001080955754,466.44927536231876,352.5944422696275,477.82608695652175,350C489.20289855072474,347.4055577303725,500.5797101449276,351.6223390170652,511.95652173913044,361.2C523.3333333333333,370.7776609829348,534.7101449275361,385.7162016621117,546.0869565217391,375.19999999999993C557.4637681159421,364.68379833788816,568.8405797101449,328.71285433448764,580.2173913043478,322C591.5942028985506,315.28714566551236,602.9710144927536,337.83238099993747,614.3478260869565,338.8C625.7246376811594,339.76761900006255,637.1014492753623,319.1576216657625,648.4782608695652,322C659.8550724637682,324.8423783342375,671.231884057971,351.13713233701225,682.6086956521739,394.80000000000007C693.9855072463768,438.4628676629879,705.3623188405797,499.49384898618894,716.7391304347826,518C728.1159420289855,536.5061510138111,739.4927536231884,512.4874717182317,750.8695652173914,484.4C762.2463768115944,456.31252828176827,773.6231884057972,424.1562641408841,785,392L785,392C773.6231884057972,424.1562641703966,762.2463768115941,456.31252834079316,750.8695652173914,484.4C739.4927536231886,512.4874716592068,728.1159420289856,536.5061508072239,716.7391304347826,518C705.3623188405796,499.4938491927761,693.9855072463768,438.4628684303109,682.6086956521739,394.80000000000007C671.231884057971,351.13713156968925,659.8550724637681,324.84237547153276,648.4782608695652,322C637.1014492753624,319.15762452846724,625.7246376811595,339.7676296835582,614.3478260869565,338.8C602.9710144927535,337.8323703164418,591.5942028985506,315.2871057942342,580.2173913043478,322C568.8405797101449,328.7128942057658,557.463768115942,364.68394713950516,546.0869565217391,375.19999999999993C534.7101449275362,385.7160528604947,523.3333333333333,370.77710564774486,511.95652173913044,361.2C500.57971014492756,351.6228943522551,489.2028985507247,347.407630269515,477.82608695652175,350C466.4492753623188,352.592369730485,455.072463768116,361.9923732741949,443.695652173913,364C432.31884057971,366.0076267258051,420.9420289855072,360.6228766337054,409.5652173913043,350C398.18840579710144,339.3771233662946,386.81159420289856,323.5161201909835,375.4347826086957,310.79999999999995C364.0579710144928,298.0838798090164,352.6811594202899,288.51264260236013,341.30434782608694,288.40000000000003C329.927536231884,288.28735739763994,318.5507246376811,297.6333093995759,307.17391304347825,296.8C295.7971014492754,295.9666906004241,284.4202898550725,284.9541197993362,273.04347826086956,282.8C261.66666666666663,280.64588020066384,250.28985507246378,287.35021140307947,238.91304347826087,288.40000000000003C227.53623188405797,289.4497885969206,216.15942028985506,284.8450345883458,204.78260869565216,296.8C193.40579710144925,308.7549654116542,182.02898550724635,337.2696502435372,170.65217391304347,336C159.2753623188406,334.7303497564628,147.8985507246377,303.67636443750524,136.52173913043478,294C125.14492753623186,284.32363556249476,113.76811594202896,296.0248920064418,102.39130434782608,305.19999999999993C91.0144927536232,314.37510799355806,79.6376811594203,321.0240675367272,68.26086956521739,336C56.884057971014485,350.9759324632728,45.507246376811594,374.2788378466494,34.130434782608695,383.6C22.7536231884058,392.9211621533506,11.3768115942029,388.2605810766753,0,383.6Z"><title>1</title></path><path fill="rgb(223, 236, 247)" d="M0,383.6C11.376811594202902,388.26051809884643,22.753623188405804,392.9210361976928,34.130434782608695,383.6C45.50724637681159,374.27896380230726,56.884057971014485,350.97637330807544,68.26086956521739,336C79.6376811594203,321.02362669192456,91.01449275362319,314.37347057000557,102.39130434782608,305.19999999999993C113.76811594202897,296.0265294299943,125.1449275362319,284.3297444119021,136.52173913043478,294C147.89855072463766,303.6702555880979,159.27536231884056,334.70755178238596,170.65217391304347,336C182.02898550724638,337.29244821761404,193.40579710144922,308.8400484585543,204.78260869565216,296.8C216.1594202898551,284.75995154144573,227.53623188405803,289.1322543833969,238.91304347826087,288.40000000000003C250.28985507246372,287.66774561660316,261.66666666666663,281.83093400785793,273.04347826086956,282.8C284.4202898550725,283.7690659921421,295.7971014492753,291.54400958517135,307.17391304347825,296.8C318.5507246376812,302.05599041482867,329.92753623188406,304.7930276514569,341.30434782608694,288.40000000000003C352.6811594202898,272.0069723485432,364.0579710144927,236.48387980900145,375.4347826086957,249.19999999999996C386.8115942028987,261.91612019099847,398.1884057971015,322.8714531125375,409.5652173913043,350C420.94202898550714,377.1285468874625,432.31884057971007,370.43030774084866,443.695652173913,364C455.07246376811594,357.56969225915134,466.44927536231876,351.4073159240678,477.82608695652175,350C489.20289855072474,348.5926840759322,500.5797101449276,351.9404285628801,511.95652173913044,361.2C523.3333333333333,370.4595714371199,534.7101449275361,385.6309698244118,546.0869565217391,375.19999999999993C557.4637681159421,364.76903017558806,568.8405797101449,328.7356921394723,580.2173913043478,322C591.5942028985506,315.2643078605277,602.9710144927536,337.8262616176988,614.3478260869565,338.8C625.7246376811594,339.77373838230125,637.1014492753623,319.15926138973254,648.4782608695652,322C659.8550724637682,324.84073861026746,671.231884057971,351.13669282337077,682.6086956521739,394.80000000000007C693.9855072463768,438.46330717662937,705.3623188405797,499.49396731678473,716.7391304347826,518C728.1159420289855,536.5060326832153,739.4927536231884,512.48743790949,750.8695652173914,484.4C762.2463768115944,456.3125620905099,773.6231884057972,424.15628104525496,785,392L785,392C773.6231884057972,424.1562641703966,762.2463768115941,456.31252834079316,750.8695652173914,484.4C739.4927536231886,512.4874716592068,728.1159420289856,536.5061508072239,716.7391304347826,518C705.3623188405796,499.4938491927761,693.9855072463768,438.4628684303109,682.6086956521739,394.80000000000007C671.231884057971,351.13713156968925,659.8550724637681,324.84237547153276,648.4782608695652,322C637.1014492753624,319.15762452846724,625.7246376811595,339.7676296835582,614.3478260869565,338.8C602.9710144927535,337.8323703164418,591.5942028985506,315.2871057942342,580.2173913043478,322C568.8405797101449,328.7128942057658,557.463768115942,364.68394713950516,546.0869565217391,375.19999999999993C534.7101449275362,385.7160528604947,523.3333333333333,370.77710564774486,511.95652173913044,361.2C500.57971014492756,351.6228943522551,489.2028985507247,347.407630269515,477.82608695652175,350C466.4492753623188,352.592369730485,455.072463768116,361.9923732741949,443.695652173913,364C432.31884057971,366.0076267258051,420.9420289855072,360.6228766337054,409.5652173913043,350C398.18840579710144,339.3771233662946,386.81159420289856,323.5161201909835,375.4347826086957,310.79999999999995C364.0579710144928,298.0838798090164,352.6811594202899,288.51264260236013,341.30434782608694,288.40000000000003C329.927536231884,288.28735739763994,318.5507246376811,297.6333093995759,307.17391304347825,296.8C295.7971014492754,295.9666906004241,284.4202898550725,284.9541197993362,273.04347826086956,282.8C261.66666666666663,280.64588020066384,250.28985507246378,287.35021140307947,238.91304347826087,288.40000000000003C227.53623188405797,289.4497885969206,216.15942028985506,284.8450345883458,204.78260869565216,296.8C193.40579710144925,308.7549654116542,182.02898550724635,337.2696502435372,170.65217391304347,336C159.2753623188406,334.7303497564628,147.8985507246377,303.67636443750524,136.52173913043478,294C125.14492753623186,284.32363556249476,113.76811594202896,296.0248920064418,102.39130434782608,305.19999999999993C91.0144927536232,314.37510799355806,79.6376811594203,321.0240675367272,68.26086956521739,336C56.884057971014485,350.9759324632728,45.507246376811594,374.2788378466494,34.130434782608695,383.6C22.7536231884058,392.9211621533506,11.3768115942029,388.2605810766753,0,383.6Z"><title>11</title></path><path fill="rgb(186, 214, 235)" d="M0,383.6C11.376811594202902,388.2606221821725,22.753623188405804,392.9212443643449,34.130434782608695,383.6C45.50724637681159,374.27875563565516,56.884057971014485,350.9756447247931,68.26086956521739,336C79.6376811594203,321.0243552752069,91.01449275362319,314.37617673648293,102.39130434782608,305.19999999999993C113.76811594202897,296.02382326351693,125.1449275362319,284.3196483292749,136.52173913043478,294C147.89855072463766,303.6803516707251,159.27536231884056,334.7452299464171,170.65217391304347,336C182.02898550724638,337.2547700535829,193.40579710144922,308.69943188505675,204.78260869565216,296.8C216.1594202898551,284.90056811494327,227.53623188405803,289.65704251335603,238.91304347826087,288.40000000000003C250.28985507246372,287.14295748664404,261.66666666666663,279.872398061519,273.04347826086956,282.8C284.4202898550725,285.72760193848103,295.7971014492753,298.853365240568,307.17391304347825,296.8C318.5507246376812,294.746634759432,329.92753623188406,277.5141409762092,341.30434782608694,288.40000000000003C352.6811594202898,299.28585902379086,364.0579710144927,338.2900708545954,375.4347826086957,310.79999999999995C386.8115942028987,283.3099291454045,398.1884057971015,189.32557560540917,409.5652173913043,210C420.94202898550714,230.67442439459083,432.31884057971007,366.00762672376777,443.695652173913,364C455.07246376811594,361.99237327623223,466.44927536231876,222.64391749951992,477.82608695652175,210C489.20289855072474,197.35608250048008,500.5797101449276,311.41670327815245,511.95652173913044,361.2C523.3333333333333,410.9832967218475,534.7101449275361,396.4892693878702,546.0869565217391,375.19999999999993C557.4637681159421,353.91073061212967,568.8405797101449,325.82621917036636,580.2173913043478,322C591.5942028985506,318.17378082963364,602.9710144927536,338.60585393066424,614.3478260869565,338.8C625.7246376811594,338.9941460693358,637.1014492753623,318.9503651069767,648.4782608695652,322C659.8550724637682,325.0496348930233,671.231884057971,351.19268564142897,682.6086956521739,394.80000000000007C693.9855072463768,438.40731435857117,705.3623188405797,499.47889232730756,716.7391304347826,518C728.1159420289855,536.5211076726924,739.4927536231884,512.4917450493407,750.8695652173914,484.4C762.2463768115944,456.30825495065926,773.6231884057972,424.15412747532963,785,392L785,392C773.6231884057972,424.1562641703966,762.2463768115941,456.31252834079316,750.8695652173914,484.4C739.4927536231886,512.4874716592068,728.1159420289856,536.5061508072239,716.7391304347826,518C705.3623188405796,499.4938491927761,693.9855072463768,438.4628684303109,682.6086956521739,394.80000000000007C671.231884057971,351.13713156968925,659.8550724637681,324.84237547153276,648.4782608695652,322C637.1014492753624,319.15762452846724,625.7246376811595,339.7676296835582,614.3478260869565,338.8C602.9710144927535,337.8323703164418,591.5942028985506,315.2871057942342,580.2173913043478,322C568.8405797101449,328.7128942057658,557.463768115942,364.68394713950516,546.0869565217391,375.19999999999993C534.7101449275362,385.7160528604947,523.3333333333333,370.77710564774486,511.95652173913044,361.2C500.57971014492756,351.6228943522551,489.2028985507247,347.407630269515,477.82608695652175,350C466.4492753623188,352.592369730485,455.072463768116,361.9923732741949,443.695652173913,364C432.31884057971,366.0076267258051,420.9420289855072,360.6228766337054,409.5652173913043,350C398.18840579710144,339.3771233662946,386.81159420289856,323.5161201909835,375.4347826086957,310.79999999999995C364.0579710144928,298.0838798090164,352.6811594202899,288.51264260236013,341.30434782608694,288.40000000000003C329.927536231884,288.28735739763994,318.5507246376811,297.6333093995759,307.17391304347825,296.8C295.7971014492754,295.9666906004241,284.4202898550725,284.9541197993362,273.04347826086956,282.8C261.66666666666663,280.64588020066384,250.28985507246378,287.35021140307947,238.91304347826087,288.40000000000003C227.53623188405797,289.4497885969206,216.15942028985506,284.8450345883458,204.78260869565216,296.8C193.40579710144925,308.7549654116542,182.02898550724635,337.2696502435372,170.65217391304347,336C159.2753623188406,334.7303497564628,147.8985507246377,303.67636443750524,136.52173913043478,294C125.14492753623186,284.32363556249476,113.76811594202896,296.0248920064418,102.39130434782608,305.19999999999993C91.0144927536232,314.37510799355806,79.6376811594203,321.0240675367272,68.26086956521739,336C56.884057971014485,350.9759324632728,45.507246376811594,374.2788378466494,34.130434782608695,383.6C22.7536231884058,392.9211621533506,11.3768115942029,388.2605810766753,0,383.6Z"><title>25</title></path><path fill="rgb(167, 205, 229)" d="M0,383.6C11.376811594202902,388.26056874502626,22.753623188405804,392.92113749005244,34.130434782608695,383.6C45.50724637681159,374.2788625099476,56.884057971014485,350.97601878481674,68.26086956521739,336C79.6376811594203,321.02398121518326,91.01449275362319,314.3747873706806,102.39130434782608,305.19999999999993C113.76811594202897,296.02521262931924,125.1449275362319,284.32483173246067,136.52173913043478,294C147.89855072463766,303.67516826753933,159.27536231884056,334.7258856994765,170.65217391304347,336C182.02898550724638,337.2741143005235,193.40579710144922,308.7716254696335,204.78260869565216,296.8C216.1594202898551,284.82837453036655,227.53623188405803,289.3876124219898,238.91304347826087,288.40000000000003C250.28985507246372,287.4123875780103,261.66666666666663,280.87792484240737,273.04347826086956,282.8C284.4202898550725,284.72207515759266,295.7971014492753,295.1006882083809,307.17391304347825,296.8C318.5507246376812,298.4993117916191,329.92753623188406,291.5193223240692,341.30434782608694,288.40000000000003C352.6811594202898,285.28067767593086,364.0579710144927,286.02202249534264,375.4347826086957,310.79999999999995C386.8115942028987,335.57797750465727,398.1884057971015,384.39258769456023,409.5652173913043,350C420.94202898550714,315.60741230543977,432.31884057971007,198.0076267264164,443.695652173913,196C455.07246376811594,193.9923732735836,466.44927536231876,307.5769053997743,477.82608695652175,350C489.20289855072474,392.4230946002257,500.5797101449276,363.6847516744859,511.95652173913044,361.2C523.3333333333333,358.7152483255141,534.7101449275361,382.484087902282,546.0869565217391,375.19999999999993C557.4637681159421,367.91591209771786,568.8405797101449,329.5788967163857,580.2173913043478,322C591.5942028985506,314.4211032836143,602.9710144927536,337.600325232175,614.3478260869565,338.8C625.7246376811594,339.999674767825,637.1014492753623,319.21980235491435,648.4782608695652,322C659.8550724637682,324.78019764508565,671.231884057971,351.1204653481674,682.6086956521739,394.80000000000007C693.9855072463768,438.47953465183275,705.3623188405797,499.4983362524164,716.7391304347826,518C728.1159420289855,536.5016637475836,739.4927536231884,512.4861896421667,750.8695652173914,484.4C762.2463768115944,456.31381035783323,773.6231884057972,424.15690517891665,785,392L785,392C773.6231884057972,424.1562641703966,762.2463768115941,456.31252834079316,750.8695652173914,484.4C739.4927536231886,512.4874716592068,728.1159420289856,536.5061508072239,716.7391304347826,518C705.3623188405796,499.4938491927761,693.9855072463768,438.4628684303109,682.6086956521739,394.80000000000007C671.231884057971,351.13713156968925,659.8550724637681,324.84237547153276,648.4782608695652,322C637.1014492753624,319.15762452846724,625.7246376811595,339.7676296835582,614.3478260869565,338.8C602.9710144927535,337.8323703164418,591.5942028985506,315.2871057942342,580.2173913043478,322C568.8405797101449,328.7128942057658,557.463768115942,364.68394713950516,546.0869565217391,375.19999999999993C534.7101449275362,385.7160528604947,523.3333333333333,370.77710564774486,511.95652173913044,361.2C500.57971014492756,351.6228943522551,489.2028985507247,347.407630269515,477.82608695652175,350C466.4492753623188,352.592369730485,455.072463768116,361.9923732741949,443.695652173913,364C432.31884057971,366.0076267258051,420.9420289855072,360.6228766337054,409.5652173913043,350C398.18840579710144,339.3771233662946,386.81159420289856,323.5161201909835,375.4347826086957,310.79999999999995C364.0579710144928,298.0838798090164,352.6811594202899,288.51264260236013,341.30434782608694,288.40000000000003C329.927536231884,288.28735739763994,318.5507246376811,297.6333093995759,307.17391304347825,296.8C295.7971014492754,295.9666906004241,284.4202898550725,284.9541197993362,273.04347826086956,282.8C261.66666666666663,280.64588020066384,250.28985507246378,287.35021140307947,238.91304347826087,288.40000000000003C227.53623188405797,289.4497885969206,216.15942028985506,284.8450345883458,204.78260869565216,296.8C193.40579710144925,308.7549654116542,182.02898550724635,337.2696502435372,170.65217391304347,336C159.2753623188406,334.7303497564628,147.8985507246377,303.67636443750524,136.52173913043478,294C125.14492753623186,284.32363556249476,113.76811594202896,296.0248920064418,102.39130434782608,305.19999999999993C91.0144927536232,314.37510799355806,79.6376811594203,321.0240675367272,68.26086956521739,336C56.884057971014485,350.9759324632728,45.507246376811594,374.2788378466494,34.130434782608695,383.6C22.7536231884058,392.9211621533506,11.3768115942029,388.2605810766753,0,383.6Z"><title>30</title></path><path fill="rgb(171, 207, 230)" d="M0,383.6C11.376811594202902,388.2605802208152,22.753623188405804,392.9211604416303,34.130434782608695,383.6C45.50724637681159,374.2788395583697,56.884057971014485,350.97593845429395,68.26086956521739,336C79.6376811594203,321.02406154570605,91.01449275362319,314.375085741194,102.39130434782608,305.19999999999993C113.76811594202897,296.02491425880584,125.1449275362319,284.3237185809296,136.52173913043478,294C147.89855072463766,303.6762814190704,159.27536231884056,334.73003993508723,170.65217391304347,336C182.02898550724638,337.26996006491277,193.40579710144922,308.7561216787215,204.78260869565216,296.8C216.1594202898551,284.8438783212785,227.53623188405803,289.4454733500268,238.91304347826087,288.40000000000003C250.28985507246372,287.35452664997325,261.66666666666663,280.6619849211713,273.04347826086956,282.8C284.4202898550725,284.9380150788287,295.7971014492753,295.90658696528806,307.17391304347825,296.8C318.5507246376812,297.69341303471197,329.92753623188406,288.5116672176768,341.30434782608694,288.40000000000003C352.6811594202898,288.28833278232327,364.0579710144927,297.24674416400484,375.4347826086957,310.79999999999995C386.8115942028987,324.35325583599507,398.1884057971015,342.50135612630373,409.5652173913043,350C420.94202898550714,357.49864387369627,432.31884057971007,354.34783133078025,443.695652173913,364C455.07246376811594,373.65216866921975,466.44927536231876,396.1073185505753,477.82608695652175,350C489.20289855072474,303.8926814494247,500.5797101449276,189.22289446691858,511.95652173913044,198.79999999999998C523.3333333333333,208.3771055330814,534.7101449275361,342.20110358175026,546.0869565217391,375.19999999999993C557.4637681159421,408.1988964182496,568.8405797101449,340.37269120608,580.2173913043478,322C591.5942028985506,303.62730879392,602.9710144927536,334.7081315939297,614.3478260869565,338.8C625.7246376811594,342.89186840607033,637.1014492753623,319.99478241820105,648.4782608695652,322C659.8550724637682,324.00521758179895,671.231884057971,350.91273873326577,682.6086956521739,394.80000000000007C693.9855072463768,438.68726126673437,705.3623188405797,499.5542626487362,716.7391304347826,518C728.1159420289855,536.4457373512638,739.4927536231884,512.4702106717896,750.8695652173914,484.4C762.2463768115944,456.3297893282103,773.6231884057972,424.1648946641052,785,392L785,392C773.6231884057972,424.1562641703966,762.2463768115941,456.31252834079316,750.8695652173914,484.4C739.4927536231886,512.4874716592068,728.1159420289856,536.5061508072239,716.7391304347826,518C705.3623188405796,499.4938491927761,693.9855072463768,438.4628684303109,682.6086956521739,394.80000000000007C671.231884057971,351.13713156968925,659.8550724637681,324.84237547153276,648.4782608695652,322C637.1014492753624,319.15762452846724,625.7246376811595,339.7676296835582,614.3478260869565,338.8C602.9710144927535,337.8323703164418,591.5942028985506,315.2871057942342,580.2173913043478,322C568.8405797101449,328.7128942057658,557.463768115942,364.68394713950516,546.0869565217391,375.19999999999993C534.7101449275362,385.7160528604947,523.3333333333333,370.77710564774486,511.95652173913044,361.2C500.57971014492756,351.6228943522551,489.2028985507247,347.407630269515,477.82608695652175,350C466.4492753623188,352.592369730485,455.072463768116,361.9923732741949,443.695652173913,364C432.31884057971,366.0076267258051,420.9420289855072,360.6228766337054,409.5652173913043,350C398.18840579710144,339.3771233662946,386.81159420289856,323.5161201909835,375.4347826086957,310.79999999999995C364.0579710144928,298.0838798090164,352.6811594202899,288.51264260236013,341.30434782608694,288.40000000000003C329.927536231884,288.28735739763994,318.5507246376811,297.6333093995759,307.17391304347825,296.8C295.7971014492754,295.9666906004241,284.4202898550725,284.9541197993362,273.04347826086956,282.8C261.66666666666663,280.64588020066384,250.28985507246378,287.35021140307947,238.91304347826087,288.40000000000003C227.53623188405797,289.4497885969206,216.15942028985506,284.8450345883458,204.78260869565216,296.8C193.40579710144925,308.7549654116542,182.02898550724635,337.2696502435372,170.65217391304347,336C159.2753623188406,334.7303497564628,147.8985507246377,303.67636443750524,136.52173913043478,294C125.14492753623186,284.32363556249476,113.76811594202896,296.0248920064418,102.39130434782608,305.19999999999993C91.0144927536232,314.37510799355806,79.6376811594203,321.0240675367272,68.26086956521739,336C56.884057971014485,350.9759324632728,45.507246376811594,374.2788378466494,34.130434782608695,383.6C22.7536231884058,392.9211621533506,11.3768115942029,388.2605810766753,0,383.6Z"><title>29</title></path><path fill="rgb(150, 197, 224)" d="M0,383.6C11.376811594202902,388.2605813455416,22.753623188405804,392.92116269108305,34.130434782608695,383.6C45.50724637681159,374.278837308917,56.884057971014485,350.9759305812096,68.26086956521739,336C79.6376811594203,321.0240694187904,91.01449275362319,314.37511498407866,102.39130434782608,305.19999999999993C113.76811594202897,296.0248850159212,125.1449275362319,284.3236094824754,136.52173913043478,294C147.89855072463766,303.6763905175246,159.27536231884056,334.7304470860195,170.65217391304347,336C182.02898550724638,337.2695529139805,193.40579710144922,308.75460217344664,204.78260869565216,296.8C216.1594202898551,284.8453978265534,227.53623188405803,289.451144220194,238.91304347826087,288.40000000000003C250.28985507246372,287.34885577980606,261.66666666666663,280.6408209457774,273.04347826086956,282.8C284.4202898550725,284.9591790542226,295.7971014492753,295.98557199669636,307.17391304347825,296.8C318.5507246376812,297.61442800330366,329.92753623188406,288.21689106743725,341.30434782608694,288.40000000000003C352.6811594202898,288.5831089325628,364.0579710144927,298.3468637335547,375.4347826086957,310.79999999999995C386.8115942028987,323.2531362664452,398.1884057971015,338.3956539983438,409.5652173913043,350C420.94202898550714,361.6043460016562,432.31884057971007,369.6705202730703,443.695652173913,364C455.07246376811594,358.3294797269297,466.44927536231876,338.922264909375,477.82608695652175,350C489.20289855072474,361.077735090625,500.5797101449276,402.64042008942965,511.95652173913044,361.2C523.3333333333333,319.7595799105703,534.7101449275361,195.3160547329062,546.0869565217391,184.79999999999998C557.4637681159421,174.28394526709377,568.8405797101449,277.6953609789456,580.2173913043478,322C591.5942028985506,366.3046390210544,602.9710144927536,351.5025013513114,614.3478260869565,338.8C625.7246376811594,326.0974986486886,637.1014492753623,315.4946336158087,648.4782608695652,322C659.8550724637682,328.5053663841913,671.231884057971,352.1189641854535,682.6086956521739,394.80000000000007C693.9855072463768,437.48103581454666,705.3623188405797,499.2295096423778,716.7391304347826,518C728.1159420289855,536.7704903576222,739.4927536231884,512.5629972450349,750.8695652173914,484.4C762.2463768115944,456.23700275496503,773.6231884057972,424.1185013774825,785,392L785,392C773.6231884057972,424.1562641703966,762.2463768115941,456.31252834079316,750.8695652173914,484.4C739.4927536231886,512.4874716592068,728.1159420289856,536.5061508072239,716.7391304347826,518C705.3623188405796,499.4938491927761,693.9855072463768,438.4628684303109,682.6086956521739,394.80000000000007C671.231884057971,351.13713156968925,659.8550724637681,324.84237547153276,648.4782608695652,322C637.1014492753624,319.15762452846724,625.7246376811595,339.7676296835582,614.3478260869565,338.8C602.9710144927535,337.8323703164418,591.5942028985506,315.2871057942342,580.2173913043478,322C568.8405797101449,328.7128942057658,557.463768115942,364.68394713950516,546.0869565217391,375.19999999999993C534.7101449275362,385.7160528604947,523.3333333333333,370.77710564774486,511.95652173913044,361.2C500.57971014492756,351.6228943522551,489.2028985507247,347.407630269515,477.82608695652175,350C466.4492753623188,352.592369730485,455.072463768116,361.9923732741949,443.695652173913,364C432.31884057971,366.0076267258051,420.9420289855072,360.6228766337054,409.5652173913043,350C398.18840579710144,339.3771233662946,386.81159420289856,323.5161201909835,375.4347826086957,310.79999999999995C364.0579710144928,298.0838798090164,352.6811594202899,288.51264260236013,341.30434782608694,288.40000000000003C329.927536231884,288.28735739763994,318.5507246376811,297.6333093995759,307.17391304347825,296.8C295.7971014492754,295.9666906004241,284.4202898550725,284.9541197993362,273.04347826086956,282.8C261.66666666666663,280.64588020066384,250.28985507246378,287.35021140307947,238.91304347826087,288.40000000000003C227.53623188405797,289.4497885969206,216.15942028985506,284.8450345883458,204.78260869565216,296.8C193.40579710144925,308.7549654116542,182.02898550724635,337.2696502435372,170.65217391304347,336C159.2753623188406,334.7303497564628,147.8985507246377,303.67636443750524,136.52173913043478,294C125.14492753623186,284.32363556249476,113.76811594202896,296.0248920064418,102.39130434782608,305.19999999999993C91.0144927536232,314.37510799355806,79.6376811594203,321.0240675367272,68.26086956521739,336C56.884057971014485,350.9759324632728,45.507246376811594,374.2788378466494,34.130434782608695,383.6C22.7536231884058,392.9211621533506,11.3768115942029,388.2605810766753,0,383.6Z"><title>34</title></path><path fill="rgb(214, 230, 244)" d="M0,383.6C11.376811594202902,388.26058104261006,22.753623188405804,392.92116208522003,34.130434782608695,383.6C45.50724637681159,374.27883791478,56.884057971014485,350.97593270173013,68.26086956521739,336C79.6376811594203,321.02406729826987,91.01449275362319,314.37510710785944,102.39130434782608,305.19999999999993C113.76811594202897,296.02489289214043,125.1449275362319,284.3236388668317,136.52173913043478,294C147.89855072463766,303.6763611331683,159.27536231884056,334.7303374248137,170.65217391304347,336C182.02898550724638,337.2696625751863,193.40579710144922,308.75501143391386,204.78260869565216,296.8C216.1594202898551,284.84498856608616,227.53623188405803,289.4496168395312,238.91304347826087,288.40000000000003C250.28985507246372,287.3503831604689,261.66666666666663,280.6465212079615,273.04347826086956,282.8C284.4202898550725,284.95347879203854,295.7971014492753,295.9642983286229,307.17391304347825,296.8C318.5507246376812,297.63570167137715,329.92753623188406,288.2962854775472,341.30434782608694,288.40000000000003C352.6811594202898,288.50371452245287,364.0579710144927,298.0505597611885,375.4347826086957,310.79999999999995C386.8115942028987,323.5494402388114,398.1884057971015,339.5014754776987,409.5652173913043,350C420.94202898550714,360.4985245223013,432.31884057971007,365.5435383280167,443.695652173913,364C455.07246376811594,362.4564616719833,466.44927536231876,354.32437121023435,477.82608695652175,350C489.20289855072474,345.67562878976565,500.5797101449276,345.1589768310458,511.95652173913044,361.2C523.3333333333333,377.2410231689542,534.7101449275361,409.8397214655825,546.0869565217391,375.19999999999993C557.4637681159421,340.56027853441736,568.8405797101449,238.68213730662393,580.2173913043478,238.00000000000003C591.5942028985506,237.31786269337613,602.9710144927536,337.8317293079217,614.3478260869565,338.8C625.7246376811594,339.7682706920783,637.1014492753623,241.1909454616895,648.4782608695652,238.00000000000003C659.8550724637682,234.80905453831056,671.231884057971,327.0044888453204,682.6086956521739,394.80000000000007C693.9855072463768,462.59551115467974,705.3623188405797,505.9910991570292,716.7391304347826,518C728.1159420289855,530.0089008429708,739.4927536231884,510.631114526563,750.8695652173914,484.4C762.2463768115944,458.16888547343694,773.6231884057972,425.0844427367185,785,392L785,392C773.6231884057972,424.1562641703966,762.2463768115941,456.31252834079316,750.8695652173914,484.4C739.4927536231886,512.4874716592068,728.1159420289856,536.5061508072239,716.7391304347826,518C705.3623188405796,499.4938491927761,693.9855072463768,438.4628684303109,682.6086956521739,394.80000000000007C671.231884057971,351.13713156968925,659.8550724637681,324.84237547153276,648.4782608695652,322C637.1014492753624,319.15762452846724,625.7246376811595,339.7676296835582,614.3478260869565,338.8C602.9710144927535,337.8323703164418,591.5942028985506,315.2871057942342,580.2173913043478,322C568.8405797101449,328.7128942057658,557.463768115942,364.68394713950516,546.0869565217391,375.19999999999993C534.7101449275362,385.7160528604947,523.3333333333333,370.77710564774486,511.95652173913044,361.2C500.57971014492756,351.6228943522551,489.2028985507247,347.407630269515,477.82608695652175,350C466.4492753623188,352.592369730485,455.072463768116,361.9923732741949,443.695652173913,364C432.31884057971,366.0076267258051,420.9420289855072,360.6228766337054,409.5652173913043,350C398.18840579710144,339.3771233662946,386.81159420289856,323.5161201909835,375.4347826086957,310.79999999999995C364.0579710144928,298.0838798090164,352.6811594202899,288.51264260236013,341.30434782608694,288.40000000000003C329.927536231884,288.28735739763994,318.5507246376811,297.6333093995759,307.17391304347825,296.8C295.7971014492754,295.9666906004241,284.4202898550725,284.9541197993362,273.04347826086956,282.8C261.66666666666663,280.64588020066384,250.28985507246378,287.35021140307947,238.91304347826087,288.40000000000003C227.53623188405797,289.4497885969206,216.15942028985506,284.8450345883458,204.78260869565216,296.8C193.40579710144925,308.7549654116542,182.02898550724635,337.2696502435372,170.65217391304347,336C159.2753623188406,334.7303497564628,147.8985507246377,303.67636443750524,136.52173913043478,294C125.14492753623186,284.32363556249476,113.76811594202896,296.0248920064418,102.39130434782608,305.19999999999993C91.0144927536232,314.37510799355806,79.6376811594203,321.0240675367272,68.26086956521739,336C56.884057971014485,350.9759324632728,45.507246376811594,374.2788378466494,34.130434782608695,383.6C22.7536231884058,392.9211621533506,11.3768115942029,388.2605810766753,0,383.6Z"><title>15</title></path><path fill="rgb(198, 220, 239)" d="M0,383.6C11.376811594202902,388.26058108859826,22.753623188405804,392.9211621771964,34.130434782608695,383.6C45.50724637681159,374.27883782280367,56.884057971014485,350.97593237981283,68.26086956521739,336C79.6376811594203,321.02406762018717,91.01449275362319,314.3751083035525,102.39130434782608,305.19999999999993C113.76811594202897,296.02489169644736,125.1449275362319,284.3236344059768,136.52173913043478,294C147.89855072463766,303.6763655940232,159.27536231884056,334.73035407254,170.65217391304347,336C182.02898550724638,337.26964592746,193.40579710144922,308.7549493038634,204.78260869565216,296.8C216.1594202898551,284.84505069613664,227.53623188405803,289.44984871200677,238.91304347826087,288.40000000000003C250.28985507246372,287.3501512879933,261.66666666666663,280.6456558481097,273.04347826086956,282.8C284.4202898550725,284.9543441518903,295.7971014492753,295.96752789555455,307.17391304347825,296.8C318.5507246376812,297.63247210444547,329.92753623188406,288.2842325696724,341.30434782608694,288.40000000000003C352.6811594202898,288.5157674303277,364.0579710144927,298.0955418257561,375.4347826086957,310.79999999999995C386.8115942028987,323.50445817424384,398.1884057971015,339.3336001273032,409.5652173913043,350C420.94202898550714,360.6663998726968,432.31884057971007,366.17005766503104,443.695652173913,364C455.07246376811594,361.82994233496896,466.44927536231876,351.98616921257263,477.82608695652175,350C489.20289855072474,348.01383078742737,500.5797101449276,353.8852654846783,511.95652173913044,361.2C523.3333333333333,368.51473451532166,534.7101449275361,377.27276884871395,546.0869565217391,375.19999999999993C557.4637681159421,373.1272311512859,568.8405797101449,360.2236591204655,580.2173913043478,322C591.5942028985506,283.7763408795345,602.9710144927536,220.2325946694238,614.3478260869565,221.20000000000002C625.7246376811594,222.16740533057623,637.1014492753623,287.6459622018393,648.4782608695652,322C659.8550724637682,356.3540377981607,671.231884057971,359.5835565232184,682.6086956521739,394.80000000000007C693.9855072463768,430.0164434767817,705.3623188405797,497.2198117052874,716.7391304347826,518C728.1159420289855,538.7801882947126,739.4927536231884,513.1371966556321,750.8695652173914,484.4C762.2463768115944,455.6628033443678,773.6231884057972,423.8314016721839,785,392L785,392C773.6231884057972,424.1562641703966,762.2463768115941,456.31252834079316,750.8695652173914,484.4C739.4927536231886,512.4874716592068,728.1159420289856,536.5061508072239,716.7391304347826,518C705.3623188405796,499.4938491927761,693.9855072463768,438.4628684303109,682.6086956521739,394.80000000000007C671.231884057971,351.13713156968925,659.8550724637681,324.84237547153276,648.4782608695652,322C637.1014492753624,319.15762452846724,625.7246376811595,339.7676296835582,614.3478260869565,338.8C602.9710144927535,337.8323703164418,591.5942028985506,315.2871057942342,580.2173913043478,322C568.8405797101449,328.7128942057658,557.463768115942,364.68394713950516,546.0869565217391,375.19999999999993C534.7101449275362,385.7160528604947,523.3333333333333,370.77710564774486,511.95652173913044,361.2C500.57971014492756,351.6228943522551,489.2028985507247,347.407630269515,477.82608695652175,350C466.4492753623188,352.592369730485,455.072463768116,361.9923732741949,443.695652173913,364C432.31884057971,366.0076267258051,420.9420289855072,360.6228766337054,409.5652173913043,350C398.18840579710144,339.3771233662946,386.81159420289856,323.5161201909835,375.4347826086957,310.79999999999995C364.0579710144928,298.0838798090164,352.6811594202899,288.51264260236013,341.30434782608694,288.40000000000003C329.927536231884,288.28735739763994,318.5507246376811,297.6333093995759,307.17391304347825,296.8C295.7971014492754,295.9666906004241,284.4202898550725,284.9541197993362,273.04347826086956,282.8C261.66666666666663,280.64588020066384,250.28985507246378,287.35021140307947,238.91304347826087,288.40000000000003C227.53623188405797,289.4497885969206,216.15942028985506,284.8450345883458,204.78260869565216,296.8C193.40579710144925,308.7549654116542,182.02898550724635,337.2696502435372,170.65217391304347,336C159.2753623188406,334.7303497564628,147.8985507246377,303.67636443750524,136.52173913043478,294C125.14492753623186,284.32363556249476,113.76811594202896,296.0248920064418,102.39130434782608,305.19999999999993C91.0144927536232,314.37510799355806,79.6376811594203,321.0240675367272,68.26086956521739,336C56.884057971014485,350.9759324632728,45.507246376811594,374.2788378466494,34.130434782608695,383.6C22.7536231884058,392.9211621533506,11.3768115942029,388.2605810766753,0,383.6Z"><title>21</title></path><path fill="rgb(118, 179, 216)" d="M0,383.6C11.376811594202902,388.2605810783461,22.753623188405804,392.92116215669205,34.130434782608695,383.6C45.50724637681159,374.278837843308,56.884057971014485,350.97593245157816,68.26086956521739,336C79.6376811594203,321.02406754842184,91.01449275362319,314.37510803699547,102.39130434782608,305.19999999999993C113.76811594202897,296.0248919630044,125.1449275362319,284.3236354004399,136.52173913043478,294C147.89855072463766,303.6763645995601,159.27536231884056,334.73035036124463,170.65217391304347,336C182.02898550724638,337.26964963875537,193.40579710144922,308.75496315458173,204.78260869565216,296.8C216.1594202898551,284.8450368454183,227.53623188405803,289.4497970204288,238.91304347826087,288.40000000000003C250.28985507246372,287.3502029795713,261.66666666666663,280.6458487637031,273.04347826086956,282.8C284.4202898550725,284.9541512362969,295.7971014492753,295.9668079247588,307.17391304347825,296.8C318.5507246376812,297.6331920752412,329.92753623188406,288.28691953726167,341.30434782608694,288.40000000000003C352.6811594202898,288.5130804627384,364.0579710144927,298.0855139261945,375.4347826086957,310.79999999999995C386.8115942028987,323.5144860738054,398.1884057971015,339.37102475796024,409.5652173913043,350C420.94202898550714,360.62897524203976,432.31884057971007,366.03038704196456,443.695652173913,364C455.07246376811594,361.96961295803544,466.44927536231876,352.5074270741814,477.82608695652175,350C489.20289855072474,347.4925729258186,500.5797101449276,351.9399046613096,511.95652173913044,361.2C523.3333333333333,370.4600953386904,534.7101449275361,384.53295428058004,546.0869565217391,375.19999999999993C557.4637681159421,365.8670457194198,568.8405797101449,333.1282782163697,580.2173913043478,322C591.5942028985506,310.8717217836303,602.9710144927536,321.35393285394093,614.3478260869565,338.8C625.7246376811594,356.2460671460591,637.1014492753623,380.6559903678666,648.4782608695652,322C659.8550724637682,263.3440096321334,671.231884057971,121.62210567459249,682.6086956521739,165.20000000000002C693.9855072463768,208.77789432540754,705.3623188405797,437.6555869337634,716.7391304347826,518C728.1159420289855,598.3444130662366,739.4927536231884,530.1555465903532,750.8695652173914,484.4C762.2463768115944,438.6444534096467,773.6231884057972,415.3222267048234,785,392L785,392C773.6231884057972,424.1562641703966,762.2463768115941,456.31252834079316,750.8695652173914,484.4C739.4927536231886,512.4874716592068,728.1159420289856,536.5061508072239,716.7391304347826,518C705.3623188405796,499.4938491927761,693.9855072463768,438.4628684303109,682.6086956521739,394.80000000000007C671.231884057971,351.13713156968925,659.8550724637681,324.84237547153276,648.4782608695652,322C637.1014492753624,319.15762452846724,625.7246376811595,339.7676296835582,614.3478260869565,338.8C602.9710144927535,337.8323703164418,591.5942028985506,315.2871057942342,580.2173913043478,322C568.8405797101449,328.7128942057658,557.463768115942,364.68394713950516,546.0869565217391,375.19999999999993C534.7101449275362,385.7160528604947,523.3333333333333,370.77710564774486,511.95652173913044,361.2C500.57971014492756,351.6228943522551,489.2028985507247,347.407630269515,477.82608695652175,350C466.4492753623188,352.592369730485,455.072463768116,361.9923732741949,443.695652173913,364C432.31884057971,366.0076267258051,420.9420289855072,360.6228766337054,409.5652173913043,350C398.18840579710144,339.3771233662946,386.81159420289856,323.5161201909835,375.4347826086957,310.79999999999995C364.0579710144928,298.0838798090164,352.6811594202899,288.51264260236013,341.30434782608694,288.40000000000003C329.927536231884,288.28735739763994,318.5507246376811,297.6333093995759,307.17391304347825,296.8C295.7971014492754,295.9666906004241,284.4202898550725,284.9541197993362,273.04347826086956,282.8C261.66666666666663,280.64588020066384,250.28985507246378,287.35021140307947,238.91304347826087,288.40000000000003C227.53623188405797,289.4497885969206,216.15942028985506,284.8450345883458,204.78260869565216,296.8C193.40579710144925,308.7549654116542,182.02898550724635,337.2696502435372,170.65217391304347,336C159.2753623188406,334.7303497564628,147.8985507246377,303.67636443750524,136.52173913043478,294C125.14492753623186,284.32363556249476,113.76811594202896,296.0248920064418,102.39130434782608,305.19999999999993C91.0144927536232,314.37510799355806,79.6376811594203,321.0240675367272,68.26086956521739,336C56.884057971014485,350.9759324632728,45.507246376811594,374.2788378466494,34.130434782608695,383.6C22.7536231884058,392.9211621533506,11.3768115942029,388.2605810766753,0,383.6Z"><title>41</title></path><path fill="rgb(8, 48, 107)" d="M0,383.6C11.376811594202902,388.2605810757518,22.753623188405804,392.92116215150344,34.130434782608695,383.6C45.50724637681159,374.2788378484966,56.884057971014485,350.9759324697382,68.26086956521739,336C79.6376811594203,321.0240675302618,91.01449275362319,314.3751079695439,102.39130434782608,305.19999999999993C113.76811594202897,296.024892030456,125.1449275362319,284.323635652086,136.52173913043478,294C147.89855072463766,303.676364347914,159.27536231884056,334.73034942211183,170.65217391304347,336C182.02898550724638,337.26965057788817,193.40579710144922,308.7549666594667,204.78260869565216,296.8C216.1594202898551,284.84503334053335,227.53623188405803,289.4497839400215,238.91304347826087,288.40000000000003C250.28985507246372,287.35021605997855,261.66666666666663,280.6458975804471,273.04347826086956,282.8C284.4202898550725,284.9541024195529,295.7971014492753,295.96662573819026,307.17391304347825,296.8C318.5507246376812,297.63337426180976,329.92753623188406,288.28759946679213,341.30434782608694,288.40000000000003C352.6811594202898,288.51240053320794,364.0579710144927,298.08297639464143,375.4347826086957,310.79999999999995C386.8115942028987,323.5170236053585,398.1884057971015,339.38049495464213,409.5652173913043,350C420.94202898550714,360.61950504535787,432.31884057971007,365.99504378679006,443.695652173913,364C455.07246376811594,362.00495621320994,466.44927536231876,352.63932989819745,477.82608695652175,350C489.20289855072474,347.36067010180255,500.5797101449276,351.44763662042004,511.95652173913044,361.2C523.3333333333333,370.95236337957994,534.7101449275361,386.37012362012223,546.0869565217391,375.19999999999993C557.4637681159421,364.02987637987763,568.8405797101449,326.2718688990906,580.2173913043478,322C591.5942028985506,317.7281311009094,602.9710144927536,346.9424007835154,614.3478260869565,338.8C625.7246376811594,330.65759921648464,637.1014492753623,285.15852796684794,648.4782608695652,322C659.8550724637682,358.84147203315206,671.231884057971,478.02348734909236,682.6086956521739,394.80000000000007C693.9855072463768,311.5765126509078,705.3623188405797,25.94752263678285,716.7391304347826,41.99999999999997C728.1159420289855,58.05247736321709,739.4927536231884,375.7864221037763,750.8695652173914,484.4C762.2463768115944,593.0135778962236,773.6231884057972,492.5067889481118,785,392L785,392C773.6231884057972,424.1562641703966,762.2463768115941,456.31252834079316,750.8695652173914,484.4C739.4927536231886,512.4874716592068,728.1159420289856,536.5061508072239,716.7391304347826,518C705.3623188405796,499.4938491927761,693.9855072463768,438.4628684303109,682.6086956521739,394.80000000000007C671.231884057971,351.13713156968925,659.8550724637681,324.84237547153276,648.4782608695652,322C637.1014492753624,319.15762452846724,625.7246376811595,339.7676296835582,614.3478260869565,338.8C602.9710144927535,337.8323703164418,591.5942028985506,315.2871057942342,580.2173913043478,322C568.8405797101449,328.7128942057658,557.463768115942,364.68394713950516,546.0869565217391,375.19999999999993C534.7101449275362,385.7160528604947,523.3333333333333,370.77710564774486,511.95652173913044,361.2C500.57971014492756,351.6228943522551,489.2028985507247,347.407630269515,477.82608695652175,350C466.4492753623188,352.592369730485,455.072463768116,361.9923732741949,443.695652173913,364C432.31884057971,366.0076267258051,420.9420289855072,360.6228766337054,409.5652173913043,350C398.18840579710144,339.3771233662946,386.81159420289856,323.5161201909835,375.4347826086957,310.79999999999995C364.0579710144928,298.0838798090164,352.6811594202899,288.51264260236013,341.30434782608694,288.40000000000003C329.927536231884,288.28735739763994,318.5507246376811,297.6333093995759,307.17391304347825,296.8C295.7971014492754,295.9666906004241,284.4202898550725,284.9541197993362,273.04347826086956,282.8C261.66666666666663,280.64588020066384,250.28985507246378,287.35021140307947,238.91304347826087,288.40000000000003C227.53623188405797,289.4497885969206,216.15942028985506,284.8450345883458,204.78260869565216,296.8C193.40579710144925,308.7549654116542,182.02898550724635,337.2696502435372,170.65217391304347,336C159.2753623188406,334.7303497564628,147.8985507246377,303.67636443750524,136.52173913043478,294C125.14492753623186,284.32363556249476,113.76811594202896,296.0248920064418,102.39130434782608,305.19999999999993C91.0144927536232,314.37510799355806,79.6376811594203,321.0240675367272,68.26086956521739,336C56.884057971014485,350.9759324632728,45.507246376811594,374.2788378466494,34.130434782608695,383.6C22.7536231884058,392.9211621533506,11.3768115942029,388.2605810766753,0,383.6Z"><title>85</title></path><path fill="rgb(14, 85, 157)" d="M0,383.6C11.376811594202902,388.2605810768737,22.753623188405804,392.9211621537473,34.130434782608695,383.6C45.50724637681159,374.27883784625277,56.884057971014485,350.97593246188467,68.26086956521739,336C79.6376811594203,321.02406753811533,91.01449275362319,314.37510799871404,102.39130434782608,305.19999999999993C113.76811594202897,296.0248920012858,125.1449275362319,284.32363554325894,136.52173913043478,294C147.89855072463766,303.67636445674106,159.27536231884056,334.7303498282499,170.65217391304347,336C182.02898550724638,337.2696501717501,193.40579710144922,308.7549651437415,204.78260869565216,296.8C216.1594202898551,284.8450348562585,227.53623188405803,289.44978959678406,238.91304347826087,288.40000000000003C250.28985507246372,287.350210403216,261.66666666666663,280.64587646912224,273.04347826086956,282.8C284.4202898550725,284.9541235308778,295.7971014492753,295.9667045267272,307.17391304347825,296.8C318.5507246376812,297.6332954732728,329.92753623188406,288.28730542396903,341.30434782608694,288.40000000000003C352.6811594202898,288.51269457603104,364.0579710144927,298.0840737773968,375.4347826086957,310.79999999999995C386.8115942028987,323.5159262226031,398.1884057971015,339.37639946644356,409.5652173913043,350C420.94202898550714,360.62360053355644,432.31884057971007,366.0103283568289,443.695652173913,364C455.07246376811594,361.9896716431711,466.44927536231876,352.58228710624076,477.82608695652175,350C489.20289855072474,347.41771289375924,500.5797101449276,351.6605232182079,511.95652173913044,361.2C523.3333333333333,370.73947678179206,534.7101449275361,385.5756200209276,546.0869565217391,375.19999999999993C557.4637681159421,364.82437997907226,568.8405797101449,329.2369966980815,580.2173913043478,322C591.5942028985506,314.7630033019185,602.9710144927536,335.8763931867465,614.3478260869565,338.8C625.7246376811594,341.7236068132535,637.1014492753623,326.45743055493244,648.4782608695652,322C659.8550724637682,317.54256944506756,671.231884057971,323.8938845935233,682.6086956521739,394.80000000000007C693.9855072463768,465.70611540647684,705.3623188405797,601.1670310709745,716.7391304347826,518C728.1159420289855,434.83296892902547,739.4927536231884,133.0379911225787,750.8695652173914,75.60000000000001C762.2463768115944,18.162008877421318,773.6231884057972,205.08100443871066,785,392L785,392C773.6231884057972,424.1562641703966,762.2463768115941,456.31252834079316,750.8695652173914,484.4C739.4927536231886,512.4874716592068,728.1159420289856,536.5061508072239,716.7391304347826,518C705.3623188405796,499.4938491927761,693.9855072463768,438.4628684303109,682.6086956521739,394.80000000000007C671.231884057971,351.13713156968925,659.8550724637681,324.84237547153276,648.4782608695652,322C637.1014492753624,319.15762452846724,625.7246376811595,339.7676296835582,614.3478260869565,338.8C602.9710144927535,337.8323703164418,591.5942028985506,315.2871057942342,580.2173913043478,322C568.8405797101449,328.7128942057658,557.463768115942,364.68394713950516,546.0869565217391,375.19999999999993C534.7101449275362,385.7160528604947,523.3333333333333,370.77710564774486,511.95652173913044,361.2C500.57971014492756,351.6228943522551,489.2028985507247,347.407630269515,477.82608695652175,350C466.4492753623188,352.592369730485,455.072463768116,361.9923732741949,443.695652173913,364C432.31884057971,366.0076267258051,420.9420289855072,360.6228766337054,409.5652173913043,350C398.18840579710144,339.3771233662946,386.81159420289856,323.5161201909835,375.4347826086957,310.79999999999995C364.0579710144928,298.0838798090164,352.6811594202899,288.51264260236013,341.30434782608694,288.40000000000003C329.927536231884,288.28735739763994,318.5507246376811,297.6333093995759,307.17391304347825,296.8C295.7971014492754,295.9666906004241,284.4202898550725,284.9541197993362,273.04347826086956,282.8C261.66666666666663,280.64588020066384,250.28985507246378,287.35021140307947,238.91304347826087,288.40000000000003C227.53623188405797,289.4497885969206,216.15942028985506,284.8450345883458,204.78260869565216,296.8C193.40579710144925,308.7549654116542,182.02898550724635,337.2696502435372,170.65217391304347,336C159.2753623188406,334.7303497564628,147.8985507246377,303.67636443750524,136.52173913043478,294C125.14492753623186,284.32363556249476,113.76811594202896,296.0248920064418,102.39130434782608,305.19999999999993C91.0144927536232,314.37510799355806,79.6376811594203,321.0240675367272,68.26086956521739,336C56.884057971014485,350.9759324632728,45.507246376811594,374.2788378466494,34.130434782608695,383.6C22.7536231884058,392.9211621533506,11.3768115942029,388.2605810766753,0,383.6Z"><title>73</title></path><path fill="rgb(122, 182, 217)" d="M0,383.6C11.376811594202902,388.2605810766573,22.753623188405804,392.9211621533144,34.130434782608695,383.6C45.50724637681159,374.27883784668563,56.884057971014485,350.97593246339966,68.26086956521739,336C79.6376811594203,321.02406753660034,91.01449275362319,314.37510799308717,102.39130434782608,305.19999999999993C113.76811594202897,296.0248920069127,125.1449275362319,284.3236355642514,136.52173913043478,294C147.89855072463766,303.6763644357486,159.27536231884056,334.7303497499069,170.65217391304347,336C182.02898550724638,337.2696502500931,193.40579710144922,308.7549654361211,204.78260869565216,296.8C216.1594202898551,284.8450345638789,227.53623188405803,289.44978850560875,238.91304347826087,288.40000000000003C250.28985507246372,287.3502114943913,261.66666666666663,280.64588054144394,273.04347826086956,282.8C284.4202898550725,284.9541194585561,295.7971014492753,295.9666893286156,307.17391304347825,296.8C318.5507246376812,297.63331067138444,329.92753623188406,288.2873621440939,341.30434782608694,288.40000000000003C352.6811594202898,288.5126378559062,364.0579710144927,298.08386209500895,375.4347826086957,310.79999999999995C386.8115942028987,323.51613790499096,398.1884057971015,339.37718947587007,409.5652173913043,350C420.94202898550714,360.62281052412993,432.31884057971007,366.0073800015107,443.695652173913,364C455.07246376811594,361.9926199984893,466.44927536231876,352.59329051808714,477.82608695652175,350C489.20289855072474,347.40670948191286,500.5797101449276,351.6194579261406,511.95652173913044,361.2C523.3333333333333,370.78054207385935,534.7101449275361,385.7288777773501,546.0869565217391,375.19999999999993C557.4637681159421,364.6711222226498,568.8405797101449,328.66503096445854,580.2173913043478,322C591.5942028985506,315.33496903554146,602.9710144927536,338.01099836481575,614.3478260869565,338.8C625.7246376811594,339.5890016351843,637.1014492753623,318.4909755762785,648.4782608695652,322C659.8550724637682,325.5090244237215,671.231884057971,353.62509933006976,682.6086956521739,394.80000000000007C693.9855072463768,435.9749006699304,705.3623188405797,490.2086271034427,716.7391304347826,518C728.1159420289855,545.7913728965573,739.4927536231884,547.1403922561592,750.8695652173914,484.4C762.2463768115944,421.6596077438407,773.6231884057972,294.8298038719204,785,168.00000000000003L785,392C773.6231884057972,424.1562641703966,762.2463768115941,456.31252834079316,750.8695652173914,484.4C739.4927536231886,512.4874716592068,728.1159420289856,536.5061508072239,716.7391304347826,518C705.3623188405796,499.4938491927761,693.9855072463768,438.4628684303109,682.6086956521739,394.80000000000007C671.231884057971,351.13713156968925,659.8550724637681,324.84237547153276,648.4782608695652,322C637.1014492753624,319.15762452846724,625.7246376811595,339.7676296835582,614.3478260869565,338.8C602.9710144927535,337.8323703164418,591.5942028985506,315.2871057942342,580.2173913043478,322C568.8405797101449,328.7128942057658,557.463768115942,364.68394713950516,546.0869565217391,375.19999999999993C534.7101449275362,385.7160528604947,523.3333333333333,370.77710564774486,511.95652173913044,361.2C500.57971014492756,351.6228943522551,489.2028985507247,347.407630269515,477.82608695652175,350C466.4492753623188,352.592369730485,455.072463768116,361.9923732741949,443.695652173913,364C432.31884057971,366.0076267258051,420.9420289855072,360.6228766337054,409.5652173913043,350C398.18840579710144,339.3771233662946,386.81159420289856,323.5161201909835,375.4347826086957,310.79999999999995C364.0579710144928,298.0838798090164,352.6811594202899,288.51264260236013,341.30434782608694,288.40000000000003C329.927536231884,288.28735739763994,318.5507246376811,297.6333093995759,307.17391304347825,296.8C295.7971014492754,295.9666906004241,284.4202898550725,284.9541197993362,273.04347826086956,282.8C261.66666666666663,280.64588020066384,250.28985507246378,287.35021140307947,238.91304347826087,288.40000000000003C227.53623188405797,289.4497885969206,216.15942028985506,284.8450345883458,204.78260869565216,296.8C193.40579710144925,308.7549654116542,182.02898550724635,337.2696502435372,170.65217391304347,336C159.2753623188406,334.7303497564628,147.8985507246377,303.67636443750524,136.52173913043478,294C125.14492753623186,284.32363556249476,113.76811594202896,296.0248920064418,102.39130434782608,305.19999999999993C91.0144927536232,314.37510799355806,79.6376811594203,321.0240675367272,68.26086956521739,336C56.884057971014485,350.9759324632728,45.507246376811594,374.2788378466494,34.130434782608695,383.6C22.7536231884058,392.9211621533506,11.3768115942029,388.2605810766753,0,383.6Z"><title>40</title></path></g><g id="xAxis" transform="translate(0,560)" fill="none" font-size="10" font-family="sans-serif" text-anchor="middle"><path class="domain" stroke="currentColor" d="M0.5,0.5H785.5"/><g class="tick" opacity="1" transform="translate(0.5,0)"><line stroke="currentColor" y2="6"/><text fill="currentColor" y="9" dy="0.71em">0</text></g><g class="tick" opacity="1" transform="translate(68.76086956521739,0)"><line stroke="currentColor" y2="6"/><text fill="currentColor" y="9" dy="0.71em">2</text></g><g class="tick" opacity="1" transform="translate(137.02173913043478,0)"><line stroke="currentColor" y2="6"/><text fill="currentColor" y="9" dy="0.71em">4</text></g><g class="tick" opacity="1" transform="translate(205.28260869565216,0)"><line stroke="currentColor" y2="6"/><text fill="currentColor" y="9" dy="0.71em">6</text></g><g class="tick" opacity="1" transform="translate(273.54347826086956,0)"><line stroke="currentColor" y2="6"/><text fill="currentColor" y="9" dy="0.71em">8</text></g><g class="tick" opacity="1" transform="translate(341.80434782608694,0)"><line stroke="currentColor" y2="6"/><text fill="currentColor" y="9" dy="0.71em">10</text></g><g class="tick" opacity="1" transform="translate(410.0652173913043,0)"><line stroke="currentColor" y2="6"/><text fill="currentColor" y="9" dy="0.71em">12</text></g><g class="tick" opacity="1" transform="translate(478.32608695652175,0)"><line stroke="currentColor" y2="6"/><text fill="currentColor" y="9" dy="0.71em">14</text></g><g class="tick" opacity="1" transform="translate(546.5869565217391,0)"><line stroke="currentColor" y2="6"/><text fill="currentColor" y="9" dy="0.71em">16</text></g><g class="tick" opacity="1" transform="translate(614.8478260869565,0)"><line stroke="currentColor" y2="6"/><text fill="currentColor" y="9" dy="0.71em">18</text></g><g class="tick" opacity="1" transform="translate(683.1086956521739,0)"><line stroke="currentColor" y2="6"/><text fill="currentColor" y="9" dy="0.71em">20</text></g><g class="tick" opacity="1" transform="translate(751.3695652173914,0)"><line stroke="currentColor" y2="6"/><text fill="currentColor" y="9" dy="0.71em">22</text></g></g><text y="556" x="785" text-anchor="end" style="font-family: Arial, sans-serif; font-size: 12px; fill: rgb(123, 123, 123); font-weight: bold;">hour</text><text x="4" text-anchor="start" dominant-baseline="hanging" style="font-family: Arial, sans-serif; font-size: 12px; fill: rgb(123, 123, 123); font-weight: bold;">Count</text><g id="labels"><text x="0" y="280" text-anchor="start" alignment-baseline="middle" style="font-family: Arial, sans-serif; font-size: 10px; fill: black; font-weight: bold;">37</text><text x="68.26086956521739" y="280" text-anchor="middle" alignment-baseline="middle" style="font-family: Arial, sans-serif; font-size: 10px; fill: black; font-weight: bold;">20</text><text x="102.39130434782608" y="280" text-anchor="middle" alignment-baseline="middle" style="font-family: Arial, sans-serif; font-size: 10px; fill: black; font-weight: bold;">9</text><text x="136.52173913043478" y="280" text-anchor="middle" alignment-baseline="middle" style="font-family: Arial, sans-serif; font-size: 10px; fill: black; font-weight: bold;">5</text><text x="204.78260869565216" y="280" text-anchor="middle" alignment-baseline="middle" style="font-family: Arial, sans-serif; font-size: 10px; fill: black; font-weight: bold;">6</text><text x="238.91304347826087" y="280" text-anchor="middle" alignment-baseline="middle" style="font-family: Arial, sans-serif; font-size: 10px; fill: black; font-weight: bold;">3</text><text x="273.04347826086956" y="280" text-anchor="middle" alignment-baseline="middle" style="font-family: Arial, sans-serif; font-size: 10px; fill: black; font-weight: bold;">1</text><text x="375.4347826086957" y="280" text-anchor="middle" alignment-baseline="middle" style="font-family: Arial, sans-serif; font-size: 10px; fill: black; font-weight: bold;">11</text><text x="409.5652173913043" y="280" text-anchor="middle" alignment-baseline="middle" style="font-family: Arial, sans-serif; font-size: 10px; fill: black; font-weight: bold;">25</text><text x="443.695652173913" y="280" text-anchor="middle" alignment-baseline="middle" style="font-family: Arial, sans-serif; font-size: 10px; fill: black; font-weight: bold;">30</text><text x="511.95652173913044" y="280" text-anchor="middle" alignment-baseline="middle" style="font-family: Arial, sans-serif; font-size: 10px; fill: black; font-weight: bold;">29</text><text x="546.0869565217391" y="280" text-anchor="middle" alignment-baseline="middle" style="font-family: Arial, sans-serif; font-size: 10px; fill: black; font-weight: bold;">34</text><text x="580.2173913043478" y="280" text-anchor="middle" alignment-baseline="middle" style="font-family: Arial, sans-serif; font-size: 10px; fill: black; font-weight: bold;">15</text><text x="614.3478260869565" y="280" text-anchor="middle" alignment-baseline="middle" style="font-family: Arial, sans-serif; font-size: 10px; fill: black; font-weight: bold;">21</text><text x="682.6086956521739" y="280" text-anchor="middle" alignment-baseline="middle" style="font-family: Arial, sans-serif; font-size: 10px; fill: black; font-weight: bold;">41</text><text x="716.7391304347826" y="280" text-anchor="middle" alignment-baseline="middle" style="font-family: Arial, sans-serif; font-size: 10px; fill: black; font-weight: bold;">85</text><text x="750.8695652173914" y="280" text-anchor="middle" alignment-baseline="middle" style="font-family: Arial, sans-serif; font-size: 10px; fill: black; font-weight: bold;">73</text><text x="785" y="280" text-anchor="end" alignment-baseline="middle" style="font-family: Arial, sans-serif; font-size: 10px; fill: black; font-weight: bold;">40</text></g></g><text x="4" y="4" style="font-family: Arial, sans-serif; font-size: 12px; fill: black; font-weight: bold; dominant-baseline: hanging;"/></g></g></svg>